<svg xmlns="http://www.w3.org/2000/svg" width="377" height="336" viewBox="0 0 377 336">
  <g id="Page-1" fill="none" fill-rule="evenodd" stroke="none" stroke-width="1">
    <g id="fleur" fill="#201F1F" fill-rule="nonzero" transform="translate(.152 .084)">
      <path id="Shape" d="M94.324,139.044985 C93.822,98.4039854 78.268,65.7909854 54.686,65.7909854 C48.164,65.7909854 42.143,70.3069854 40.136,81.3449854 C39.634,83.3519854 38.63,84.3559854 37.627,85.3589854 C35.62,86.3629854 31.606,87.8679854 28.094,87.8679854 C15.551,87.8679854 6.519,79.3389854 6.519,66.7949854 C6.519,54.7539854 17.558,41.2069854 36.623,41.2069854 C83.285,41.2069854 113.39,93.3879854 115.396,137.038985 L116.4,137.038985 C138.476,137.038985 161.556,143.560985 178.114,155.100985 L179.117,154.096985 C161.055,139.044985 148.01,117.469985 148.01,97.4009854 C148.01,75.8269854 168.079,59.2689854 195.173,59.2689854 C201.695,59.2689854 218.253,60.7739854 225.277,60.7739854 C239.326,60.7739854 261.904,52.2449854 261.904,28.6629854 C261.904,21.1369854 258.391,13.1089854 248.859,5.58298542 C244.343,2.07098542 247.855,-0.438014581 251.367,0.0639854187 C275.451,3.57598542 298.029,25.1509854 298.029,55.7559854 C298.029,95.3939854 266.922,107.435985 223.771,128.508985 C208.218,136.033985 205.208,146.570985 205.208,154.096985 C205.208,158.111985 206.211,160.117985 207.215,162.124985 C221.766,145.064985 240.831,139.044985 256.385,139.044985 C278.462,139.044985 298.03,155.100985 307.061,163.127985 C324.121,178.682985 333.654,180.689985 339.674,180.689985 C357.235,180.689985 364.259,171.156985 369.277,162.125985 C371.284,158.612985 374.295,158.612985 375.298,161.623985 C375.8,163.128985 376.302,165.637985 376.302,171.156985 C376.302,200.257985 349.208,238.389985 309.571,238.389985 C288.498,238.389985 270.937,232.869985 240.833,203.267985 C223.773,187.211985 214.241,177.678985 202.701,177.678985 C199.69,179.685985 197.683,184.200985 197.683,189.218985 C197.683,202.263985 208.22,215.811985 221.767,235.880985 C239.829,261.970985 246.853,272.507985 246.853,289.566985 C246.853,311.642985 225.279,335.726985 202.701,335.726985 C201.196,335.726985 199.188,335.726985 194.172,334.722985 C189.656,333.720985 189.656,331.210985 193.168,328.702985 C198.688,325.190985 207.217,318.165985 207.217,308.130985 C207.217,295.086985 201.196,290.570985 172.597,273.008985 C157.043,263.476985 134.966,246.416985 134.966,218.820985 C134.966,197.747985 153.53,177.677985 176.11,166.639985 C163.566,160.117985 143.999,154.597985 121.42,154.597985 C118.911,154.597985 116.403,154.597985 114.898,155.099985 C110.382,211.795985 73.253,245.412985 27.595,253.942985 C29.101,277.523985 40.641,292.074985 47.665,296.088985 C53.184,299.099985 60.208,298.597985 64.724,298.597985 C66.229,299.601985 66.229,302.611985 65.728,304.117985 C56.697,312.646985 43.651,321.175985 31.61,321.175985 C27.093,321.175985 22.578,318.165985 19.066,313.650985 C13.546,306.627985 0,283.044985 0,247.923985 C-0.004,200.758985 30.101,149.079985 94.324,139.044985 Z M75.759,209.287985 C86.296,194.235985 91.815,176.173985 93.821,158.110985 C73.752,162.124985 57.194,172.159985 45.654,186.207985 C34.114,200.758985 27.592,219.322985 27.09,242.402985 C49.669,235.880985 65.223,223.838985 75.759,209.287985 Z"/>
    </g>
  </g>
</svg>