<svg xmlns="http://www.w3.org/2000/svg" width="100" height="100" viewBox="0 0 100 100">
  <g id="icon" fill="none" fill-rule="evenodd" stroke="none" stroke-width="1">
    <g id="Group">
      <path id="Rectangle" fill="#1D1D1B" d="M0 -2H100V100H0z"/>
      <g id="Combined-Shape" fill="#FFF" stroke="#FFF" stroke-width="1.373" transform="translate(7 8)">
        <path d="M139.600527,15.179994 C139.739875,15.6194873 139.878883,16.0158464 139.985682,16.4210361 C140.017891,16.5443252 139.992802,16.7063332 139.939911,16.8258862 C139.63172,17.5190902 138.553557,18.0173411 137.82495,17.8641637 C137.595078,17.8159349 137.292989,17.8301998 137.097021,17.9432997 C134.089694,19.6785171 131.073213,21.3987904 128.103182,23.1958222 C125.411166,24.8243928 122.75509,26.5140986 120.118339,28.2309755 C118.726221,29.1374729 117.425646,30.1835621 116.053871,31.1219856 C114.699726,32.0478424 113.285571,32.8850534 111.938885,33.8204202 C110.361649,34.9160967 108.826793,36.0746065 107.276342,37.2093416 C104.846408,38.9880328 102.39308,40.7351376 99.9973904,42.5590009 C97.7468114,44.2724814 95.5094552,46.0104159 93.3527917,47.8403927 C89.3622352,51.226597 85.4513542,54.7068813 81.4753767,58.1110865 C79.0634124,60.1764334 76.5982182,62.1806451 74.1455686,64.1984425 C70.0112571,67.5995909 65.8545687,70.9735681 61.7395828,74.3981517 C61.4181684,74.6656904 61.1288249,74.9712203 60.8479594,75.2873641 L60.2905422,75.925692 C60.1038442,76.1377775 59.9139238,76.3464685 59.7137905,76.5436534 C59.4740859,76.7790235 59.0516362,76.8204595 58.7905717,77.0425836 C57.1482391,78.4395202 55.5438794,79.88061 53.8974782,81.2717727 C50.8325138,83.8618624 47.7960292,86.489652 44.6547797,88.984303 C42.1160128,91.0004021 39.4545116,92.8629843 36.8221683,94.7578322 C34.1596501,96.674417 31.7649771,98.8895448 29.4174314,101.172601 C26.4575709,104.051044 23.3617534,106.791254 20.4537668,109.719964 C18.5317222,111.656248 16.82531,113.808543 15.0521061,115.889513 C14.7737504,116.216246 14.6537285,116.678495 14.460473,117.077571 L14.5462514,117.197804 L14.5462514,117.197804 C14.528282,117.212069 14.5120078,117.235504 14.4920042,117.23924 C14.0926095,117.315998 13.5728539,117.294601 13.6538856,117.886253 C13.6664303,117.979654 14.301122,117.989163 14.6486429,118.033996 C14.7513734,118.047242 14.8561382,118.0486 15.1667032,118.068639 C14.8876694,118.323029 14.7601886,118.51934 14.5849025,118.584212 C14.1095617,118.759465 13.6209983,118.938795 13.1239587,118.996194 C12.8652676,119.026082 12.4780785,118.876301 12.3268645,118.674556 C12.1064855,118.379409 12.0607144,118.057771 12.4000982,117.638995 C13.3860403,116.422067 14.2109361,115.075058 15.1829774,113.845903 C15.953626,112.871817 16.8497213,111.997586 17.6871618,111.077163 C18.6208909,110.050433 19.6532822,109.095028 20.4619038,107.977275 C21.6183854,106.377319 23.0033408,105.012924 24.414233,103.669878 L25.3564478,102.775327 C25.5133831,102.625979 25.670083,102.476306 25.8262696,102.326016 C26.9403706,101.253435 27.8995281,100.018506 29.0139682,98.945925 C30.528481,97.4878533 32.1141932,96.102804 33.6982102,94.719453 C33.9179112,94.5278964 34.3017098,94.5248396 34.6099015,94.4358541 C34.6929674,94.4117397 34.7912904,94.4137776 34.8601165,94.3689452 C35.5972056,93.8886945 36.3392955,93.4155305 37.0789113,92.9387782 C38.0831963,92.2914216 39.0829196,91.6374491 40.0593674,90.9501355 C41.511157,89.9278211 42.8317362,88.7153086 44.2991218,87.7184671 C47.0877647,85.8242985 49.4732835,83.4617672 51.9961153,81.2592061 C53.9683385,79.5372346 55.9069963,77.7772235 57.8598939,76.0335151 C57.8944765,76.0026079 57.9171925,75.9533602 57.9561827,75.9336611 C59.8019422,74.9823313 61.0547125,73.3017959 62.68111,72.0712825 C64.8750685,70.4111254 66.9283234,68.5655252 69.0792232,66.8459312 C71.4366012,64.9609328 73.8617882,63.1605046 76.2093339,61.2636189 C77.9733836,59.8378129 79.6567407,58.312153 81.3845127,56.841175 C82.3694376,56.0029451 83.3913184,55.2075097 84.3606473,54.3522979 C85.5245879,53.3255681 86.6325861,52.2353258 87.7978828,51.2106339 C89.0438722,50.1142781 90.3247832,49.0579997 91.59654,47.9911926 C92.7272542,47.0422402 93.8366085,46.0647582 95.006991,45.1674311 C97.4260751,43.311302 99.881098,41.5027225 102.317813,39.6690097 C104.182898,38.2662992 106.017469,36.8204545 107.911712,35.4581611 C109.458095,34.3458422 111.078728,33.3360945 112.65393,32.2631738 C112.988228,32.035955 113.269635,31.7312986 113.595457,31.4449826 C114.107415,31.1501756 114.697692,30.8543498 115.241859,30.490596 C117.101519,29.2464971 118.947957,27.9820198 120.795072,26.7192407 C122.239064,25.7319092 123.654915,24.7024623 125.123995,23.7545289 C126.108581,23.1190637 127.169791,22.6038308 128.184891,22.0148962 C128.641924,21.7496378 129.059966,21.4157724 129.515642,21.1471176 C131.247482,20.1254825 132.998987,19.1367924 134.721674,18.0998734 C136.254834,17.177413 137.75748,16.2053652 139.279113,15.2632056 C139.385234,15.1969759 139.532379,15.1966363 139.600527,15.179994 Z M46.5572275,48.3106573 C47.7615734,49.0563872 47.8796943,50.1506166 47.8960376,51.2876226 L47.8988718,51.629702 C47.8991634,51.6868272 47.8994467,51.7439829 47.8998447,51.8011309 C47.9232388,55.1669568 47.4295896,58.467572 46.4138116,61.6717295 C45.9462689,63.1478021 45.3281904,64.5783631 44.7240127,66.0065465 C44.4897328,66.5611776 44.4524378,67.040069 44.6758683,67.6045496 L44.8734314,68.106253 C45.3024034,69.1902819 45.7628683,70.2412831 46.7525173,70.9948296 C47.6204718,71.6557677 48.281609,71.6055011 48.8288272,70.6759082 C50.3741931,68.0494772 51.3570838,65.209413 51.957193,62.2294173 C51.9846556,62.0925427 51.9839775,61.9492149 52.0212724,61.8160763 C52.2324973,61.0556238 52.6993619,60.8548969 53.3930474,61.2030272 C54.3074511,61.6622196 55.0133422,62.3251956 55.5303854,63.2184471 C55.7297437,63.563181 56.0650589,63.8294583 56.338668,64.1313977 C56.4003742,64.102868 56.4620803,64.0743383 56.5237865,64.0458086 C56.4481795,63.4837054 56.3973228,62.9165077 56.292897,62.3594992 C55.8673959,60.0883309 55.8239981,57.8341446 56.610921,55.6271681 C57.0418468,54.419071 57.9687951,53.312526 59.8538838,53.5927284 C62.3289104,53.9608975 64.8903933,56.1743271 64.9985486,59.3136136 C65.0138056,59.7517483 64.9056503,60.1131246 64.4957452,60.1667876 C64.2278999,60.2021101 63.8257929,60.0367057 63.6545753,59.8234122 C63.2222932,59.2840649 62.8693477,58.6774691 62.5160631,58.0790245 C61.8247509,56.9096463 60.8367745,56.0588497 59.6779196,55.3972323 C58.7777558,54.8836976 58.2023969,55.1465784 57.8338553,56.1665154 C57.1208442,58.1381218 57.2289995,60.1735804 57.581606,62.1580931 C57.8372458,63.5961261 58.5394074,64.9492492 58.8977777,66.3774327 C59.0320394,66.9116854 58.7896224,67.558019 58.6394256,68.1323492 C58.6116239,68.237977 58.0979712,68.3687381 57.9820179,68.2739788 C57.0923645,67.5481695 56.186776,66.825417 55.4025655,65.9916024 C54.633273,65.1737508 54.0006156,64.2261571 53.1970796,63.1922949 C53.0045022,63.5937486 52.8570177,63.8376096 52.7661537,64.1011698 C52.1060336,66.0238681 51.5422022,67.9852853 50.7739269,69.862472 C50.2775654,71.0753241 49.5204785,72.1784727 48.3995966,72.9827387 C47.5794474,73.5713336 46.7891341,73.5030661 45.9886495,73.0598368 C44.9376108,72.4783742 44.112715,71.6316533 43.4651396,70.6280191 C43.3071447,70.3831391 43.3057885,70.0360277 43.2325549,69.7357865 C43.1647459,69.7082757 43.096937,69.6804253 43.0294671,69.6529145 C42.7195802,70.0292349 42.3523948,70.3726103 42.111334,70.7893478 C41.4637585,71.9077801 40.9036566,73.077498 40.2465879,74.1898169 C39.3406604,75.7239678 38.4069312,77.2441935 37.4284481,78.7328328 C36.6937382,79.8516048 35.9630968,80.9975479 35.0649673,81.978766 C33.51655,83.6711888 32.3204002,83.8260644 30.2254428,82.8186941 C30.1254246,83.0734236 30.0267626,83.3220396 29.9301348,83.5720142 C29.3964784,84.9519688 28.9733506,86.3910207 28.2874631,87.6904809 C27.8870513,88.4482162 27.0380833,88.9576753 26.4413645,89.6243873 C25.8182003,90.3209876 25.1529946,91.0124933 24.6881642,91.8120043 C23.7954595,93.3481931 23.1207604,95.0148033 22.1897436,96.5241606 C21.0970024,98.2960591 19.8696605,99.9891612 18.6212978,101.65713 C17.7051989,102.88119 16.4985387,103.792782 14.9748717,104.134799 C12.5164584,104.686713 10.3204656,104.004378 8.43435978,102.426073 C7.51961709,101.660866 6.67573476,100.75301 6.00205287,99.7707731 C5.17444468,98.5640345 4.81200587,97.1372096 4.58654112,95.673364 C4.25088683,93.490502 3.84233793,91.3069606 4.20952338,89.1027013 C4.50856083,87.308047 4.97237402,85.5409034 5.3565117,83.7601744 C5.51213324,83.0394597 5.63791883,82.3126315 5.80099935,81.593615 C5.8718597,81.282845 6.01900511,80.9904155 6.10478343,80.682023 C6.86966834,77.9261893 8.01021482,75.3439114 9.55524166,72.9334909 C10.2635061,71.8279649 10.7378297,70.5393732 11.5789997,69.5591741 C12.6042709,68.3643228 13.923833,67.4272579 15.0796365,66.3397327 C16.0567634,65.420329 17.2271459,65.1751094 18.4894094,65.2770012 C19.0539189,65.3228525 19.6130036,65.5099938 20.1568314,65.6876252 C20.3016035,65.734835 20.381279,65.9837907 20.4904514,66.1403644 C20.312792,66.2184815 20.1358106,66.3577336 19.956456,66.36113 C19.6116475,66.3665642 19.2617533,66.314939 18.9203352,66.2521057 C17.8374264,66.0527375 16.8409739,66.2687481 15.9404711,66.8848538 C14.4595237,67.8976584 13.2043801,69.1482104 12.1384235,70.5920173 C11.7668305,71.0957024 11.3572644,71.573575 11.0158464,72.0966196 C9.29282104,74.7339191 7.97122468,77.5522464 7.23719283,80.6314167 C6.86085318,82.2097207 6.38144393,83.7693446 6.10749579,85.3649703 C5.6945393,87.7726736 5.54027395,90.2119634 5.84168472,92.6512531 C6.00883377,94.003697 6.11868426,95.3894255 6.50926379,96.6824325 C7.12462998,98.7206082 8.38723256,100.344084 10.2821536,101.405118 C10.8073339,101.699925 11.3331922,101.997449 11.877359,102.253537 C13.1233484,102.840773 14.3469609,102.633593 15.5793885,102.148249 C17.2593551,101.486631 18.350062,100.174944 19.3312575,98.7647613 C21.4506261,95.7181964 23.4025066,92.5707586 24.7664836,89.0976067 C24.875995,88.8191024 24.883793,88.3993082 24.7512265,88.1428805 C23.9504029,86.5914079 24.1145005,84.9397418 24.4040447,83.3624567 C24.6162867,82.2073433 25.2604717,81.1252523 25.7568332,80.031274 C25.9856884,79.525551 26.2121703,78.8659714 26.63462,78.6373941 C27.2869421,78.2841692 27.4174743,77.8470534 27.4713824,77.2078521 C27.5185097,76.6522021 28.6176927,76.5200824 29.211021,76.9541415 C29.9816696,77.5182825 30.3173239,78.3249259 30.3505503,79.2225927 C30.3929309,80.3729512 31.1181476,80.9214687 32.0196675,81.3100161 C32.8289673,81.659505 33.5904618,81.5131204 34.2685512,80.8980336 C35.8078143,79.5014366 37.0605846,77.8881497 38.0800921,76.0775324 C38.5439053,75.253907 39.1111271,74.4900581 39.5979954,73.6789993 C40.1899675,72.6926866 40.7493913,71.6866749 41.3166131,70.6857578 C41.5549616,70.2649446 41.7370286,69.8057522 42.0143672,69.4141481 C42.6859749,68.4671536 42.5313811,67.5109044 42.3333887,66.4982703 L42.2537327,66.0900978 L42.2537327,66.0900978 C41.8268754,63.8427042 41.45969,61.5722152 41.2738935,59.2942541 C41.1392927,57.6446258 41.1894713,55.9454102 41.429854,54.3086882 C41.6597264,52.7449886 41.8875644,51.1198144 42.79417,49.7391804 C43.1620336,49.1787755 43.5566817,48.6265219 44.006255,48.132007 C44.5534732,47.5305058 45.6709646,47.7618002 46.5572275,48.3106573 Z M27.4509804,78.7230769 C26.5359477,81.9269231 24.7058824,83.3 25.1633987,86.9615385 L26.5359477,88.3346154 C28.3660131,86.5038462 29.2810458,81.9269231 27.4509804,78.7230769 Z M44.2404124,49.6378732 L44.2226333,49.6873175 C43.8768077,50.6940085 43.4747006,51.6942464 43.2600853,52.7308257 C43.0750139,53.6259419 42.9581226,54.5203995 42.8975933,55.4140812 C42.7848796,57.077942 42.8675299,58.739131 43.0693048,60.3968947 C43.1854801,61.3509256 43.3410323,62.3037204 43.5214888,63.2552301 C43.5659978,63.4901319 43.6263813,63.7221065 43.6913945,63.9532158 C43.7611079,64.2009407 43.8360274,64.4475913 43.9025073,64.6958783 L44.0043309,64.6903761 L44.0043309,64.6903761 L44.106341,64.6847721 L44.106341,64.6847721 L44.3361882,64.2861613 L44.3361882,64.2861613 L44.4345363,64.080214 C45.1519549,62.2930318 45.7825781,60.4881883 46.1084001,58.5712638 C46.5840799,55.7726356 46.933635,52.979102 46.7610612,50.128509 C46.7085093,49.2641269 46.1450169,49.108572 45.5527058,48.9662632 C45.4658619,48.9453996 45.3810592,48.9324725 45.2988621,48.9274601 L45.1775234,48.9257729 C44.7554432,48.9411623 44.4148647,49.1796178 44.2404124,49.6378732 Z M94.0864845,31.3860552 C95.0914131,31.528364 96.0190395,32.0055573 96.6635635,32.7371405 C97.182302,33.3257355 97.5203296,34.1731356 97.3318207,35.0364988 C97.1965418,35.6563406 97.1636545,36.1427042 97.9543068,36.3926787 C97.7719007,36.4490589 97.5823747,36.5689516 97.4077667,36.5499318 C96.8056233,36.484721 96.5059077,36.9096098 96.1309242,37.2465321 C95.2589012,38.0294008 94.3980666,38.8299307 93.4728135,39.5458904 C92.8669406,40.0145927 92.1457925,39.9609297 91.4161682,39.7191065 C91.1805321,39.6413291 90.7601166,39.7255596 90.5943238,39.8987757 C89.2666246,41.2865421 88.0487759,42.7863894 86.6617439,44.1086054 C85.1584196,45.5415438 83.5527037,46.8817606 81.6001451,47.7050464 C80.8528905,48.0198921 79.6770834,47.7960698 79.0807037,47.2200414 C78.9193184,47.0644866 78.7460666,46.9211588 78.4911049,46.6946194 C77.9574485,47.5630772 77.4546452,48.3476441 76.9857463,49.15191 C76.088634,50.6901366 74.9002822,51.9936724 73.59496,53.1671264 C72.8202427,53.8640663 71.8451501,54.3932244 70.7513918,53.7564006 C70.4360802,53.5723161 70.0838127,53.2377714 70.0000687,52.9079815 C69.722052,51.8126447 69.7034045,50.6683997 70.206886,49.6399718 C70.4204841,49.2031956 70.9304074,48.8469139 71.3864226,48.6125627 C71.8261636,48.3867026 71.905161,48.7660797 71.8797327,49.1485136 C71.8207389,50.0471993 71.723433,50.9482625 71.7505566,51.8455897 C71.7770021,52.7378222 71.9627986,52.7887681 72.7649785,52.3146316 C74.0675883,51.5450089 74.921642,50.3372513 75.724839,49.1247389 C76.4246273,48.0688002 76.968116,46.9041768 77.5200808,45.7582337 C77.7018088,45.381234 77.7024869,44.9142299 77.7702958,44.4862843 C77.7957242,44.3273331 77.7618197,44.1595513 77.7804672,43.9985622 L77.8027006,43.7942357 C77.8457162,43.4185748 77.922866,43.0525099 78.392782,42.9507749 C78.7481008,42.8736767 79.4041524,43.4785744 79.5129858,43.9235019 C79.5790995,44.1941945 79.6241924,44.4737177 79.7252278,44.7311643 C80.4087419,46.4701178 81.136671,46.7340175 82.6430467,45.8183499 C84.1090761,44.9271362 85.4377924,43.7587769 86.6780181,42.5581518 C87.4064799,41.8530605 88.0773733,41.0883036 88.7365,40.3115375 L89.7220902,39.1433386 C89.8867928,38.9491233 90.0521912,38.7556467 90.2190013,38.5636534 C90.5922895,38.1340097 90.929639,37.8809784 91.5829782,38.1374061 C92.6950449,38.5731633 93.9434076,38.1085367 94.6716757,37.1368286 C94.8659483,36.8773441 95.0961597,36.6372191 95.2460175,36.3546391 C95.3555289,36.1491573 95.3595975,35.8879747 95.4111323,35.6515857 C95.2134692,35.6162632 95.0144499,35.5462975 94.818143,35.5537696 C94.3655183,35.5704119 94.3126273,35.5028237 94.4184093,34.7719198 C94.6787957,34.9488719 94.8598455,35.072161 95.0419126,35.1954501 C95.5504797,35.022234 96.0705743,34.8975863 95.8915587,34.1296618 C95.7149164,33.3719264 94.9483362,32.6138514 94.2068454,32.593473 C93.4548442,32.572755 92.8208305,32.8329188 92.26378,33.3590201 C91.4561755,34.1215104 90.5716078,34.8045252 89.7877364,35.5890921 C89.0818452,36.2958815 88.4752942,37.1015061 87.8090713,37.8497315 C87.2133697,38.5181418 86.5996987,39.1712682 85.9843326,39.8216776 C85.8700745,39.9425892 85.7090282,40.0186684 85.4472857,40.015272 C85.9053351,39.2687447 86.2993051,38.4726301 86.8353348,37.7872379 C87.8782364,36.4531345 88.943854,35.1265033 90.1101679,33.9021034 C90.9459132,33.024815 91.9328724,32.2816841 92.9130507,31.5606298 C93.1981873,31.3507327 93.7047201,31.3317129 94.0864845,31.3860552 Z M61.7752842,44.3468284 C61.9600636,44.3760374 62.0451638,44.3644897 62.0943253,44.4011707 C62.8320867,44.9503675 63.5803584,45.487677 64.2784515,46.0840837 C64.3618565,46.1554079 64.1964027,46.7541921 64.0940111,46.7701552 C63.5559472,46.8530272 63.5691699,47.2004782 63.5827317,47.5869878 C63.5898516,47.7955263 63.6366398,48.0224054 63.5718823,48.2081881 C63.4908506,48.4415204 63.3135302,48.6408887 63.1775732,48.8545218 C63.1208171,48.817637 63.0548797,48.7813771 62.9855871,48.7453346 L62.7734699,48.6374515 C62.5629394,48.5294055 62.3746475,48.4196476 62.3659001,48.2971737 C62.2991083,47.3770907 61.6793346,46.9240118 61.0571875,46.4390068 C60.3902865,45.9193586 60.432328,45.4516752 61.1565276,45.0801098 C61.2897722,45.0118423 61.3752114,44.8467775 61.477942,44.7221299 C61.5911829,44.5852552 61.6989992,44.443286 61.7752842,44.3468284 Z"/>
        <path d="M25.7338713,7.11828893 C26.3285558,7.44977693 26.6621758,7.91474319 26.5875859,8.66976146 C26.405858,10.5136635 26.3275386,12.3701321 26.0766455,14.2035053 C25.9461133,15.1561937 25.5660442,16.080692 25.2490373,17.000775 C24.1712141,20.1285137 23.9413418,23.4124865 23.5297415,26.6529855 C23.1642513,29.5310893 23.048637,32.4401003 22.7818088,35.3317897 C22.63941,36.8754505 22.3783456,38.4079032 22.2322173,39.9515641 C22.1403362,40.9208948 22.1284696,41.9014336 22.1383019,42.8765381 C22.1762749,46.7345014 22.1223668,50.5982386 22.3295232,54.4473713 C22.464802,56.9644385 22.8896251,59.4804868 23.3853085,61.9567972 C23.6294207,63.1778007 24.2227489,64.3702744 25.2642944,65.2146178 C25.8813558,65.714567 26.0776627,65.6969057 26.3872105,65.0013243 C26.8167802,64.0357297 27.186678,63.0433035 27.596244,62.0685386 C27.7413552,61.7227857 27.9268126,61.3946941 28.0939617,61.0584512 C28.1655001,61.0879998 28.2370386,61.1175484 28.308577,61.147097 C28.308577,61.5736841 28.3685879,62.0104603 28.2977276,62.4248203 C28.0549715,63.8479091 27.6626968,65.2319395 26.7757558,66.3992799 C26.5916545,66.6414427 26.1742904,66.8170363 25.8576226,66.8282444 C24.1907744,66.8849903 23.4937305,65.69241 22.8824871,64.4894783 L22.7309521,64.1892467 L22.7309521,64.1892467 C21.8935116,62.5270517 21.6934752,60.6899425 21.5558231,58.85589 L21.2730598,55.2098192 C21.1811787,53.9942924 21.096926,52.7783836 21.0360675,51.5614558 C20.9618167,50.0782508 21.0377627,48.5875737 21.0435265,47.1006326 C21.0455608,46.5449827 21.0191153,45.9883138 21.0425094,45.4336827 C21.0723453,44.7201005 21.1652435,44.0092353 21.1828739,43.2956531 C21.2096584,42.2349594 21.1747368,41.1725675 21.2008432,40.1118738 C21.2364429,38.6517643 21.2913682,37.1916548 21.3622285,35.7329038 C21.4629248,33.6522731 21.5687068,31.5713029 21.7077151,29.4930497 C21.7592499,28.7237666 21.934197,27.9633141 22.0118382,27.1943706 C22.0999899,26.3211579 22.1447438,25.4431902 22.199669,24.5669206 C22.2061109,24.4640099 22.1562713,24.3573632 22.1135517,24.1688633 C21.3530743,25.2081597 20.6827829,26.2009255 19.9341721,27.1311977 L18.6442199,28.7372515 C17.7811627,29.806084 16.9046944,30.8639473 15.9714173,31.8674684 C13.0851295,34.9704134 9.48345731,37.0731206 5.75972902,38.9968379 C4.44321833,39.6767958 3.19722894,40.4936285 1.92242074,41.2544206 C1.4650494,41.527151 1.41080224,41.8555822 1.65016782,42.364362 C2.46387518,44.0941452 3.81835889,45.0855524 5.35694388,44.8430499 C6.02214964,44.7381014 6.71142758,44.4714845 7.27491993,44.1022965 C8.23238225,43.4749826 9.0854188,42.691095 10.0082986,42.0077407 C10.5633148,41.5964374 11.1396908,41.1943044 11.7587865,40.8984786 C12.1300405,40.7215265 12.6023298,40.756849 13.0291871,40.6970724 C13.0691944,40.8060967 13.1092017,40.9154605 13.149209,41.0244848 C12.6074155,41.3644637 12.0622315,41.6993481 11.5248456,42.0457803 C10.8050537,42.5097276 10.0971283,42.9923551 9.37326777,43.450189 C8.28425609,44.1386379 7.25356011,44.9799246 6.07707489,45.4560989 C3.90820574,46.3340666 1.74340513,45.2852603 0.656088671,43.4063755 C-0.404782295,41.572323 -0.240006556,41.0180316 1.59863303,39.9209965 C3.64442894,38.7003327 5.77973266,37.6297895 7.82213812,36.4036915 C9.46480985,35.4180581 11.0396726,34.3155888 12.6230115,33.2338375 C15.0041227,31.606965 16.8359814,29.4132345 18.5895207,27.1739923 C20.1494655,25.1826868 21.3690094,22.9763896 22.4603944,20.6743141 C23.3354689,18.8287139 23.4860047,16.8880147 23.8301351,14.9575047 C24.2047796,12.8554767 24.5933248,10.7565056 24.9605103,8.65345877 L24.9795023,8.5358081 L24.9795023,8.5358081 L25.0134691,8.29953827 C25.0820375,7.82821667 25.1783804,7.37424114 25.7338713,7.11828893 Z M70.7457212,3.46315822 C70.9121921,5.58692305 70.8094616,7.6875924 70.3497169,9.75463745 C69.8326737,12.0798084 69.3552987,14.4318109 68.5805815,16.6747891 C67.9496193,18.5023884 66.9199404,20.194132 66.0350337,21.9296891 C65.8078737,22.3752959 65.8258431,22.6864055 66.1896381,23.037253 C67.7777236,24.5697057 69.9754115,24.6396714 71.7255604,23.1551078 C73.1410722,21.9544827 74.3406125,20.5521119 75.4408126,19.0566798 C75.7506995,18.6351874 76.1226316,18.2065626 76.5627116,17.9447006 C77.5005094,17.3873525 77.672066,16.3847371 78.1307935,15.5461676 C79.2059044,13.5799954 80.4210407,11.7337159 82.2135702,10.3197973 C83.7406276,9.11543621 85.9291614,9.09607676 87.343317,10.3520631 C88.2017782,11.1145534 88.3048478,12.345746 87.5158907,13.2192984 C86.1471672,14.7344295 84.6733397,16.1184599 82.8960672,17.1764364 C81.6483826,17.9192277 80.415616,18.4364984 78.9221239,18.5550325 C77.3774361,18.6776423 76.2674037,19.7250901 75.2807835,20.9518674 C74.1524426,22.3542382 72.8793297,23.6560759 71.5594285,24.8828532 C69.7465563,26.567804 66.9012929,26.530104 64.9487343,25.0316152 C64.5513739,24.7269587 64.347269,24.8071136 64.0529782,25.1851322 C62.2519725,27.5004536 60.4780905,29.8405687 58.587238,32.0811695 C56.9184599,34.0588894 55.1564444,35.9646057 53.3442503,37.8119041 C52.228115,38.9496959 50.9041454,39.8300411 49.2858849,40.2005876 C48.4881126,40.3833136 47.7764577,40.3092722 47.0614124,39.9665761 C46.7532207,39.818833 46.4399434,39.6819584 46.0544495,39.5060252 C45.9534142,39.8069456 45.8506836,40.0348436 45.8011831,40.2739497 L45.247184,43.0691815 L45.247184,43.0691815 C45.103429,43.763744 44.390757,44.1397248 43.8062439,43.755253 C43.6184131,43.6316243 43.5733202,43.150695 43.6082418,42.8507934 C43.7472501,41.6603575 43.9238924,40.473318 44.1232507,39.2910335 C44.5019637,37.0446588 42.8704804,35.8915833 41.1355885,35.5597556 C39.7892419,35.3026486 38.3666102,35.3417072 36.985681,35.409635 C36.2828413,35.4442782 35.5993271,35.8385995 34.9032683,36.0590255 C34.1522842,36.2971126 33.8444316,36.8082699 33.8908807,37.585025 C34.0505708,40.2522128 34.0268376,42.9438546 34.3943621,45.5811541 C34.8357984,48.7465928 35.499648,51.8926721 36.2862317,54.9915415 C36.6123928,56.2760575 37.5105223,57.4138493 38.1391112,58.6229654 C38.2920204,58.9174327 38.4089908,59.2305802 38.5378278,59.5250475 C37.516209,60.0418859 36.9295481,59.5251541 36.4115908,58.9506179 L36.249882,58.7684021 C36.2231687,58.7380919 36.196539,58.7079061 36.1699394,58.6779869 C35.5132098,57.9392714 35.0019303,57.0663982 34.3204504,56.3548538 C33.7667903,55.7771273 33.0402175,55.3695601 32.4167142,54.8539875 C30.9239003,53.6200778 29.1805322,52.9132883 27.3561325,52.354242 C26.6953344,52.1514773 26.0402999,51.9103333 25.4134062,51.6196021 C23.4191451,50.6944245 22.9143075,49.5658029 23.6473222,47.3747895 C24.2735378,45.5023578 25.2954187,43.8095953 26.5814153,42.2917471 C27.1035442,41.674962 27.5453195,40.9844752 28.1047433,40.4057298 C29.3727706,39.0943823 30.6882642,37.8285465 31.9912131,36.5508232 C32.3624671,36.1867299 32.5784386,35.8640725 32.5072392,35.2411739 C32.4204437,34.4803818 32.664895,33.6818897 32.763896,32.8993606 C32.7927148,32.6707834 32.8815445,32.4228466 32.8252631,32.2156666 C32.536736,31.1468216 32.9025653,30.1689999 33.1476947,29.1592522 C33.3080628,28.4972951 33.3402721,27.8010344 33.3965535,27.1173404 C33.4745338,26.1683881 33.4589377,25.2075484 33.5945556,24.268106 C33.8824046,22.2747626 34.2129732,20.2865139 34.5815148,18.3064165 C34.8852989,16.6734306 35.257231,15.0530112 35.6254336,13.4332712 C35.7159585,13.0338553 35.9305738,12.6639881 36.0519518,12.2693272 L36.2294867,11.7055536 L36.2294867,11.7055536 L36.5933578,10.5792541 C36.8329863,9.82761139 37.0575585,9.07264165 37.2121629,8.30369817 C37.4620389,7.06231636 37.9638251,5.97513082 38.7042988,4.99527131 C38.8934857,4.74495711 39.3701826,4.54830593 39.6810866,4.58872301 C40.4073205,4.68382203 41.8068971,6.28793866 41.5366785,7.32078191 C41.4790409,7.5408682 41.3074842,7.73038696 41.1884795,7.93417056 C41.0565911,7.74465181 40.8999525,7.56702043 40.8006123,7.36153863 C40.721954,7.19919102 40.7280568,6.99778489 40.6710973,6.82185171 C40.5276813,6.37624489 40.2703464,5.93165698 39.7763582,6.00909475 C39.5241089,6.04883256 39.2484656,6.46115472 39.130817,6.76275446 C37.8363443,10.0803516 36.7914084,13.4828585 36.1404425,16.9818231 C35.605769,19.8555116 35.2409568,22.7635037 34.8775009,25.6657219 C34.6767186,27.2692951 34.5098679,28.8770255 34.3524155,30.4857585 L34.0427727,33.7036266 L34.0427727,33.7036266 C34.0078511,34.0633047 34.1038008,34.4352098 34.1387224,34.7972653 C34.8873332,34.5421961 35.4904938,34.3353558 36.0946715,34.1312325 C38.5995339,33.2838324 41.0867661,33.3222116 43.4275309,34.5768394 C44.4673811,35.1341875 45.3363528,36.0145327 46.2758457,36.757324 C46.7118572,37.1020579 47.1020977,37.510644 47.5618424,37.817678 C49.0105805,38.7842916 50.4121915,38.2561524 51.6544513,37.4437351 C52.7292231,36.7413609 53.6775313,35.8267122 54.6139728,34.9344796 C55.8864077,33.7219671 57.1500274,32.4914538 58.3129508,31.175691 C59.4117948,29.932611 60.3936684,28.5835635 61.391816,27.2548944 C62.0831283,26.3348114 62.6974773,25.3566501 63.3813305,24.4307932 C63.7339371,23.9535999 63.4552423,23.6652461 63.1765475,23.3415698 C62.0983853,22.0899988 61.3470621,20.6781181 61.1802521,19.013206 C61.1280392,18.4921992 61.2199204,17.956588 61.2463659,17.4277695 C61.2521296,17.3146696 61.2911198,17.193758 61.2636571,17.090168 C60.610996,14.6481611 61.080573,12.1952858 61.2138176,9.75090142 C61.3246852,7.72087705 61.8061287,5.7591202 62.6452644,3.90027406 C63.3067407,2.43506992 64.3642212,1.2772394 65.5763061,0.25356641 C65.7088726,0.141485426 65.9119604,0.0905395245 66.090976,0.0592927047 C67.9753867,-0.269478181 70.5331401,0.755893002 70.7457212,3.46315822 Z M32.254244,37.5149914 C32.2026899,37.5629894 32.1510824,37.610384 32.0994712,37.6572437 L32.2543118,37.5150593 C31.308377,38.3954045 30.3444728,39.0733247 29.6694348,39.9696329 C29.0851863,40.7454409 28.4429102,41.4826823 27.8419704,42.2495742 C27.2034754,43.0644771 26.6117826,43.912614 26.1856823,44.8759949 C26.1302376,45.001343 26.0742205,45.1265191 26.017932,45.2516232 L26.1857501,44.8760629 C25.7570928,45.8451612 25.29391,46.8036657 24.9362228,47.7987297 L24.8895143,47.9303716 C24.6284499,48.6791365 24.8205979,49.4788073 25.3729813,49.984519 L25.4968969,50.0882354 C25.5830928,50.1542522 25.6765049,50.2137749 25.7768622,50.2657996 C27.0055603,50.9026234 28.3003721,51.4144599 29.5792489,51.9493919 C30.8828758,52.4948527 32.1580231,53.0749567 33.2202502,54.044627 C33.4368998,54.2426367 33.7423791,54.3428303 34.006834,54.4878563 L34.2183301,54.3179687 C34.1467917,53.8930799 34.1027159,53.4610587 33.9986291,53.0443212 C33.7558731,52.0739716 33.3981809,51.1246796 33.2428984,50.142103 C32.9543714,48.3155226 32.6950021,46.4767152 32.5746413,44.6328132 C32.4342767,42.4811979 32.4569927,40.3193935 32.4020675,38.1620044 L32.4088446,38.4416759 C32.4067404,38.3483546 32.4045104,38.2550398 32.4021353,38.1617326 C32.3997164,38.0670121 32.3733379,37.972863 32.3323418,37.8212803 C32.3101604,37.7394512 32.2836102,37.6403159 32.254244,37.5149914 Z M66.9453688,1.18254795 C66.3872116,1.12818455 66.0058658,1.31932154 65.6824942,1.61757058 C65.4886721,1.79631453 65.3156775,2.01351155 65.1379213,2.23943766 C64.2130073,3.41560871 63.8451437,4.82069669 63.5840793,6.2261243 C62.9782064,9.48496381 62.9826139,12.7882961 63.0975501,16.0909491 C63.1103049,16.4579453 63.1323581,16.8225691 63.1686387,17.1835992 C63.292543,18.4158947 63.5820521,19.6060816 64.2330109,20.7056968 C64.4357597,21.0483929 64.6758033,21.3683332 64.9426315,21.764013 C65.105034,21.5541159 65.1931856,21.4766781 65.2365833,21.3792016 C66.0374056,19.5910005 66.9718142,17.8479713 67.5983689,15.9999937 C68.2404503,14.1066638 68.7658986,12.1786263 69.125773,10.2181429 C69.3856385,8.8025254 69.5591028,7.37056302 69.6278907,5.92248672 C69.6777303,4.87707682 69.5312629,3.78173993 69.2498558,2.77233179 C69.0029182,1.88643917 68.3215796,1.44655904 67.4726806,1.26341324 L67.3007458,1.22989106 C67.1847385,1.20991617 67.0660687,1.19428437 66.9453688,1.18254795 Z M84.1790125,10.7076655 C83.1659468,11.0133409 82.2976533,11.575444 81.6290571,12.4150324 C81.2445803,12.8983392 80.8224696,13.3599091 80.4966476,13.8809159 C79.908405,14.8227358 79.3794953,15.801916 78.793626,16.820834 C79.0591827,16.8544583 79.3090163,16.8723955 79.557552,16.8698907 L79.7439358,16.8641049 C80.4281037,16.8282915 81.1297289,16.6288953 82.1488126,16.1670283 C83.8877731,15.3783857 85.3107438,14.1577219 86.4431532,12.6177971 C86.8967951,11.9999932 86.8194929,11.6053322 86.2092123,11.1254219 C85.8091396,10.810463 85.3635594,10.6321146 84.8953763,10.6133212 L84.7187929,10.6137976 C84.5412394,10.6218428 84.36091,10.6527288 84.1790125,10.7076655 Z"/>
      </g>
    </g>
  </g>
</svg>
