<svg xmlns="http://www.w3.org/2000/svg" width="100" height="100" viewBox="0 0 100 100">
  <g id="icon" fill="none" fill-rule="evenodd" stroke="none" stroke-width="1">
    <g id="Group">
      <path id="Rectangle" fill="#1D1D1B" d="M0 -2H100V100H0z"/>
      <g id="Combined-Shape" fill="#FFF" stroke="#FFF" stroke-width="1.32" transform="translate(10 11)">
        <path d="M134.614794,14.5421791 C134.749165,14.9632063 134.883209,15.3429117 134.986194,15.7310766 C135.017252,15.8491855 134.993059,16.0043864 134.942057,16.1189162 C134.644872,16.7829939 133.605216,17.2603099 132.902631,17.1135686 C132.680968,17.0673662 132.389668,17.0810317 132.200699,17.1893795 C129.300777,18.8516887 126.392027,20.4996816 123.528068,22.2212078 C120.932196,23.7813511 118.37098,25.4000608 115.828398,27.0448 C114.485999,27.9132093 113.231873,28.9153452 111.90909,29.8143391 C110.603307,30.7012944 109.239657,31.5033285 107.941068,32.3993941 C106.420161,33.4490338 104.940122,34.5588667 103.445044,35.6459238 C101.101894,37.3498802 98.7361847,39.0235772 96.426055,40.7708076 C94.2558539,42.4122931 92.0984033,44.0772052 90.0187634,45.8302922 C86.1707268,49.0742189 82.3995202,52.4082729 78.5655418,55.6694442 C76.2397191,57.6480118 73.8625675,59.568013 71.4975126,61.5010289 C67.5108551,64.7592719 63.5026198,67.9914854 59.5345977,71.2721789 C58.8114153,71.8702067 58.2566049,72.6663841 57.5811552,73.3275335 C57.3500114,73.5530141 56.9426492,73.5927091 56.6909085,73.8055003 C55.1072305,75.1437421 53.5601694,76.5242818 51.9725682,77.8569924 C49.0170669,80.3382547 46.0890281,82.855633 43.0599662,85.2454667 C41.4279017,86.5330595 39.7432369,87.7552892 38.0493694,88.9648899 L35.5070909,90.7764107 L35.5070909,90.7764107 C32.9396625,92.6124667 30.6305136,94.7345219 28.3668088,96.9216509 C25.5126576,99.6791514 22.5274051,102.304227 19.7232751,105.109882 C17.869875,106.964809 16.2244061,109.026671 14.5145309,111.020206 C14.2461164,111.33321 14.1303811,111.776037 13.9440276,112.158346 C13.9714902,112.197065 13.9992798,112.235458 14.0267424,112.273526 C14.0094148,112.287192 13.9937218,112.309642 13.9744326,112.313221 C13.589302,112.386755 13.0881091,112.366256 13.1662468,112.933049 C13.1783435,113.022525 13.7903677,113.031636 14.125477,113.074584 C14.2245387,113.087274 14.3255619,113.088575 14.6250352,113.107772 C14.3559669,113.351473 14.233039,113.539536 14.0640131,113.601682 C13.6056488,113.769572 13.1345341,113.941367 12.6552459,113.996354 C12.4057937,114.024986 12.0324328,113.881499 11.8866194,113.68823 C11.674111,113.405484 11.6299746,113.09736 11.9572376,112.69618 C12.9079674,111.530384 13.7034027,110.239971 14.6407282,109.062462 C15.3838537,108.129304 16.2479455,107.291805 17.0554774,106.410055 C17.9558591,105.426466 18.9513792,104.511203 19.7311216,103.440415 C21.2180264,101.396773 23.0966007,99.7543116 24.9039028,98.0266033 C25.9782145,96.9990887 26.9031164,95.8160478 27.977755,94.7885332 C29.4381781,93.391725 30.9672577,92.0648711 32.4947027,90.739644 C32.6157624,90.6347823 32.7884914,90.5888854 32.9697607,90.5528994 L33.2426788,90.5002219 C33.2874357,90.4906373 33.3313786,90.4801392 33.3738335,90.4679611 C33.4539329,90.4448599 33.5487443,90.4468121 33.6151123,90.4038634 C34.3258768,89.9437913 35.0414635,89.4905082 35.7546645,89.0337875 C36.7230821,88.4136308 37.687101,87.7871361 38.6286757,87.1287012 C40.0286157,86.1493412 41.3020313,84.9877746 42.7170103,84.0328173 C44.5097093,82.8230961 46.1296408,81.4139601 47.7312155,79.9837594 L48.9313673,78.909946 C49.331879,78.5525495 49.7336561,78.1966231 50.1391112,77.8449537 C52.0408979,76.195334 53.9103179,74.5092729 55.7934692,72.8388296 C55.8268166,72.809221 55.8487213,72.7620426 55.886319,72.7431712 C57.6661585,71.8318132 58.874187,70.2218885 60.442499,69.0430774 C62.5581018,67.4526747 64.5380261,65.6846208 66.6121081,64.0372786 C68.885294,62.2314819 71.2238672,60.5067019 73.487572,58.6895173 C75.1886199,57.3236191 76.8118571,55.8620625 78.4779229,54.4528903 C79.427672,53.6498802 80.4130571,52.8878665 81.3477671,52.0685879 C82.4701383,51.084998 83.5385651,50.0405642 84.6622441,49.0589266 C85.8637339,48.0086362 87.0988981,46.9967393 88.325235,45.9747559 C89.4155665,45.0656755 90.4853011,44.1292642 91.6138841,43.2696398 C93.9465724,41.4914994 96.313916,39.7589106 98.6636049,38.0022446 C100.46208,36.6584715 102.23113,35.2733766 104.057722,33.9683224 C105.548877,32.9027396 107.111631,31.9354182 108.630576,30.9075782 C108.952934,30.6899065 109.224291,30.3980507 109.538477,30.1237648 C110.03215,29.8413447 110.601346,29.5579485 111.126078,29.2094785 C112.919322,28.0176527 114.699815,26.8063047 116.480963,25.5965836 C117.873383,24.6507365 119.238668,23.6645437 120.655281,22.7564394 C121.604703,22.1476744 122.628013,21.65409 123.606859,21.0899005 C124.047569,20.8357875 124.450681,20.51595 124.890083,20.2585833 C126.560072,19.279874 128.249024,18.3327254 129.910185,17.3393745 C131.38859,16.4556729 132.83757,15.5244675 134.304859,14.6218945 C134.40719,14.5584475 134.54908,14.5581222 134.614794,14.5421791 Z M44.8944694,46.2807978 C46.2300029,47.102354 46.1803087,48.3654356 46.1891359,49.6246128 C46.2116945,52.8490174 45.7356757,56.0109513 44.7561755,59.0804804 C44.3053307,60.4945331 43.7093264,61.8649865 43.1267265,63.2331622 C42.9008137,63.7644894 42.8648508,64.2232594 43.0803016,64.7640223 C43.5599167,65.9665854 43.9816641,67.1789094 45.0827845,68.0118535 C45.9197352,68.6450212 46.5572659,68.5968666 47.0849405,67.7063322 C48.5751148,65.1902554 49.5229022,62.4695217 50.1015789,59.6147359 C50.1280608,59.4836123 50.1274069,59.3463067 50.1633698,59.2187621 C50.367051,58.4902614 50.8172418,58.2979685 51.4861529,58.6314715 C52.3678992,59.0713701 53.04858,59.7064899 53.5471574,60.5622098 C53.7393957,60.8924592 54.0627354,61.1475483 54.3265728,61.4368011 C54.3860751,61.4094702 54.4455775,61.3821392 54.5050798,61.3548082 C54.4321731,60.8163229 54.3831327,60.272957 54.2824364,59.7393522 C53.8721317,57.5636111 53.8302839,55.4041385 54.5891024,53.2898921 C55.004638,52.1325554 55.898481,51.0725039 57.7162451,51.3409331 C60.1028779,51.6936329 62.5728793,53.8140613 62.6771719,56.8214449 C62.691884,57.2411707 62.5875914,57.587363 62.1923258,57.6387713 C61.9340463,57.6726097 61.5463003,57.5141551 61.3811976,57.3098235 C60.9643542,56.7931378 60.6240138,56.2120292 60.2833465,55.6387294 C59.616724,54.5184847 58.6640326,53.7034359 57.5465653,53.0696175 C56.6785503,52.5776599 56.1237399,52.8294953 55.7683605,53.8065778 C55.0808141,55.6953436 55.1851067,57.6452787 55.5251201,59.5464085 C55.7716298,60.9240199 56.4487143,62.2202892 56.7942856,63.5884649 C56.9237523,64.10027 56.689993,64.7194468 56.5451604,65.2696454 C56.5183516,65.3708351 56.0230436,65.4961021 55.9112315,65.4053242 C55.0533515,64.7100111 54.1801054,64.0176263 53.4239025,63.218846 C52.6820847,62.4353579 52.0720222,61.527579 51.2971839,60.5371564 C51.1114842,60.9217423 50.9692671,61.1553571 50.8816482,61.4078433 L50.569771,62.3313454 L50.569771,62.3313454 L49.96022,64.1838084 C49.6521237,65.1085879 49.3309908,66.0279174 48.9605723,66.927074 C48.481938,68.0889659 47.75189,69.1457637 46.6710396,69.916237 C45.8801814,70.4801011 45.1180936,70.414702 44.3461977,69.9900957 C43.3326962,69.4330644 42.5372609,68.62192 41.9128132,67.6604552 C41.760461,67.4258643 41.7591532,67.0933375 41.6885351,66.8057114 C41.6231479,66.7793566 41.5577607,66.7526763 41.4927004,66.7263215 C41.1938809,67.0868301 40.8398092,67.4157779 40.6073577,67.8150054 C39.98291,68.8864448 39.4428117,70.0070149 38.8092098,71.0725977 C37.9356368,72.5422885 37.0352551,73.9986392 36.0917178,75.4247305 C35.3832475,76.4964953 34.6787005,77.5942896 33.812647,78.53428 C32.3195304,80.1555927 31.1661002,80.3039608 29.1459627,79.338917 C29.0495166,79.5829436 28.9543782,79.8211136 28.8612014,80.060585 C28.3466042,81.3825584 27.9385881,82.7611459 27.2771966,84.0060069 C26.8910852,84.7319046 26.0724374,85.2199578 25.4970301,85.8586567 C24.8961217,86.5259881 24.2546733,87.188439 23.8064441,87.9543571 C22.9456216,89.4260001 22.295019,91.0225847 21.3972528,92.4685236 C20.3435381,94.1659725 19.1600298,95.7879359 17.9562514,97.385822 C17.0728704,98.5584511 15.9093052,99.4317409 14.4400549,99.7593873 C12.069442,100.288112 9.95187757,99.6344457 8.13313265,98.122457 C7.25105934,97.3894011 6.43731566,96.5196903 5.78769384,95.5787238 C4.98964309,94.4226885 4.64014851,93.0558142 4.42273608,91.6534748 C4.09906945,89.5623296 3.70511158,87.4705337 4.05918326,85.3588903 C4.3475408,83.6396416 4.79478924,81.9467478 5.16520772,80.2408393 C5.31527134,79.5504067 5.43656459,78.8541175 5.5938208,78.1653118 C5.66215042,77.8675994 5.80404064,77.5874569 5.88675545,77.292022 C6.62432305,74.6519797 7.72413572,72.1782008 9.21398303,69.8690586 C9.89695232,68.8099832 10.3543358,67.575534 11.165464,66.6365197 C12.1541184,65.4918723 13.4265533,64.5941798 14.5410781,63.552349 C15.4833076,62.6715757 16.6118906,62.4366594 17.8290733,62.53427 C18.3734218,62.5781948 18.9125392,62.757473 19.4369446,62.9276409 C19.5765462,62.9728672 19.6533762,63.2113625 19.7586496,63.3613575 C19.5873351,63.4361923 19.4166745,63.5695935 19.2437254,63.5728472 C18.9112315,63.5780531 18.5738335,63.528597 18.244609,63.4684038 C17.2003754,63.2774123 16.2395106,63.4843469 15.3711686,64.0745659 C13.9431122,65.0448156 12.7327951,66.2428234 11.7049084,67.6259662 C11.3465865,68.1084881 10.9516478,68.5662819 10.6224233,69.0673499 C8.96093458,71.5938385 7.68653808,74.2937487 6.97872166,77.2435421 C6.61582271,78.7555308 6.15353522,80.2496243 5.88937094,81.7782068 C5.4911629,84.0847461 5.34240702,86.4215447 5.63305312,88.7583433 C5.79423256,90.0539618 5.90015982,91.3814665 6.27679009,92.6201454 C6.87017891,94.5726835 8.08768854,96.1279463 9.9149338,97.1443984 C10.4213577,97.4268185 10.9284354,97.7118415 11.4531676,97.9571696 C12.6546574,98.5197322 13.8345694,98.3212573 15.0229817,97.8563053 C16.6429496,97.2224869 17.6947027,95.9659127 18.6408554,94.6149815 C20.6845323,91.6964235 22.5667028,88.6812309 23.8819663,85.3540097 C23.9875666,85.0872073 23.9950861,84.6850515 23.8672542,84.4393981 C23.0950314,82.9531135 23.2532684,81.3708451 23.5324717,79.8598324 C23.7371336,78.7532532 24.358312,77.7166283 24.8369463,76.6686154 C25.0576281,76.1841413 25.2760214,75.5522751 25.6833836,75.3333019 C26.3124085,74.9949184 26.4382788,74.5761688 26.4902616,73.9638247 C26.5357057,73.4315214 27.5956322,73.3049529 28.1677702,73.7207742 C28.9108957,74.2612118 29.2345623,75.0339626 29.2666021,75.8939123 C29.3074691,76.9959364 30.0067852,77.521407 30.876108,77.8936289 C31.6565042,78.2284334 32.3908024,78.0881994 33.0446744,77.4989565 C34.5289638,76.1610401 35.7369923,74.6155384 36.7200888,72.8809974 C37.1673372,72.0919781 37.7143012,71.3602237 38.1837812,70.583243 C38.7546115,69.6383721 39.2940559,68.6746297 39.8410198,67.7157679 C40.0708558,67.312636 40.2464204,66.8727374 40.5138541,66.4975872 C41.2478254,65.4694218 40.958487,64.4298686 40.7446709,63.3132029 C40.3330584,61.1602377 39.9789868,58.9851473 39.7998258,56.8028989 C39.6700323,55.2225827 39.7184188,53.5947627 39.9502164,52.0268105 C40.171879,50.5288126 40.39158,48.971923 41.2658068,47.6492989 C41.6205324,47.1124404 42.0010859,46.5833908 42.434603,46.1096538 C42.9622777,45.5334257 44.0398587,45.7550018 44.8944694,46.2807978 Z M26.4705882,75.4153846 C25.5882353,78.4846154 23.8235294,79.8 24.2647059,83.3076923 L25.5882353,84.6230769 C27.3529412,82.8692308 28.2352941,78.4846154 26.4705882,75.4153846 Z M42.6742058,47.5175529 L42.6432536,47.5996151 C42.3097788,48.5640082 41.9220328,49.5222192 41.7150823,50.5152448 C41.1801309,53.0856795 41.2359269,55.6504449 41.5755242,58.2065164 C41.6815191,59.0046194 41.8151476,59.8014538 41.9670845,60.5973497 C42.0563381,61.0639285 42.2106518,61.517818 42.3345606,61.9775641 L42.4327476,61.9722931 L42.4327476,61.9722931 L42.5311145,61.9669245 L42.5311145,61.9669245 L42.7527529,61.585062 L42.7527529,61.585062 L42.8475885,61.3877681 C43.5393851,59.6756775 44.147486,57.9466678 44.4616715,56.1102864 C44.9203627,53.4292476 45.2574337,50.7530893 45.0910233,48.0222691 C45.0403482,47.1942056 44.4969806,47.0451867 43.9258234,46.9088571 C43.8420811,46.8888702 43.7603071,46.8764863 43.6810456,46.8716845 L43.5640404,46.8700682 C43.1678958,46.8844176 42.8462036,47.1012075 42.6742058,47.5175529 Z M90.7262529,30.0673133 C91.6952912,30.2036429 92.5897881,30.660786 93.2112934,31.3616304 C93.7115055,31.9254945 94.0374606,32.7372896 93.8556842,33.564377 C93.7252368,34.1581751 93.693524,34.6241032 94.4559387,34.8635746 C94.2800471,34.9175858 94.0972899,35.032441 93.9289179,35.0142203 C93.3482796,34.9517495 93.0592682,35.3587859 92.6976769,35.6815517 C91.8567976,36.4315268 91.0267071,37.198421 90.1344988,37.8842984 C89.5502642,38.3333073 88.8548713,38.281899 88.1513051,38.0502365 C87.9240845,37.975727 87.5186839,38.0564185 87.3588122,38.2223566 C86.0785309,39.5518134 84.9041768,40.988642 83.5666816,42.2553026 C82.1170475,43.6280335 80.5686786,44.9119388 78.6858542,45.7006327 C77.9652873,46.0022496 76.8314733,45.7878315 76.2563929,45.2360061 C76.1007713,45.0869872 75.933707,44.9496815 75.6878512,44.7326606 C75.1732539,45.5646286 74.6884079,46.3162304 74.2362554,47.0867037 C73.3711827,48.5602989 72.2252721,49.8090643 70.9665685,50.9332135 C70.2195198,51.6008702 69.2792519,52.1077948 68.2245564,51.4977283 C67.9205059,51.3213785 67.5808194,51.0008902 67.5000662,50.6849571 C67.2319787,49.6356428 67.2139972,48.5394753 67.6994972,47.5542587 C67.9054668,47.1358344 68.3971786,46.7945226 68.8369075,46.5700181 C69.2609435,46.3536479 69.3371195,46.7170848 69.3125993,47.08345 C69.2557125,47.9443758 69.1618819,48.8075792 69.1880367,49.6672036 C69.2135377,50.5219474 69.3926987,50.5707527 70.1662292,50.1165378 C71.4223173,49.3792522 72.2458691,48.2222408 73.0203804,47.0606742 C73.6951763,46.0491027 74.2192547,44.9334131 74.7515065,43.8356188 C74.9267442,43.4744595 74.9273981,43.0270774 74.9927853,42.6171127 C75.0173055,42.4648401 74.9846119,42.304108 75.0025933,42.1498832 C75.0509799,41.7301574 75.0575186,41.261301 75.5930397,41.1461205 C75.9356687,41.0722617 76.5682898,41.6517435 76.6732363,42.0779767 L76.7629393,42.4695987 C76.7939574,42.5997868 76.8291847,42.7283889 76.8778982,42.8517036 C77.5370012,44.5175918 78.2389327,44.7704033 79.6915093,43.8932091 C81.1051806,43.0394414 82.3864427,41.9201728 83.5823746,40.7699941 C84.8116539,39.5879293 85.8709265,38.2308161 86.9968941,36.9433319 C87.3568506,36.5317404 87.6821519,36.2893406 88.3121576,36.534994 C89.3845076,36.9524422 90.5882859,36.5073377 91.2905444,35.5764576 C91.4778788,35.3278759 91.6998683,35.0978401 91.844374,34.8271333 C91.9499743,34.6302852 91.9538976,34.3800766 92.0035918,34.1536199 C91.8129882,34.1197816 91.6210767,34.0527556 91.4317808,34.0599137 C90.9953212,34.0758568 90.9443192,34.0111084 91.0463233,33.3109148 C91.2974101,33.4804319 91.4719939,33.5985408 91.6475585,33.7166496 C92.1379625,33.5507116 92.6394823,33.4313012 92.4668601,32.6956424 C92.2965265,31.9697446 91.5573242,31.2435215 90.8423152,31.2239994 C90.1171712,31.2041519 89.5058009,31.4533844 88.968645,31.9573806 C88.1898835,32.6878335 87.3369075,33.3421502 86.5810315,34.0937521 C85.9003507,34.7708445 85.3154623,35.5426193 84.673033,36.2594067 C84.0986065,36.8997325 83.5068524,37.5254166 82.9134635,38.1484978 C82.8032861,38.2643291 82.6479915,38.3372117 82.3955969,38.3339581 L82.6122132,37.9731301 L82.6122132,37.9731301 L83.0366367,37.244786 C83.2514336,36.8826506 83.47563,36.5278359 83.7340729,36.1995388 C84.739728,34.9214902 85.7672878,33.6505998 86.8919476,32.4776453 C87.6978448,31.6372177 88.6495555,30.9253108 89.5947275,30.2345529 C89.8696806,30.033475 90.358123,30.0152543 90.7262529,30.0673133 Z M59.5690241,42.4835163 C59.7472042,42.511498 59.8292651,42.5004355 59.8766708,42.5355753 C60.5880836,43.0616966 61.3096313,43.5764301 61.9827925,44.1477776 C62.0632188,44.2161051 61.903674,44.7897303 61.8049393,44.8050226 C61.2860919,44.8844126 61.2988424,45.2172648 61.3119198,45.5875345 C61.3187855,45.7873109 61.3639027,46.0046573 61.3014579,46.182634 C61.2233202,46.4061624 61.0523327,46.5971539 60.9212313,46.8018108 C60.6475859,46.6251356 60.1526048,46.4634273 60.1385466,46.2678806 C60.0741402,45.3864566 59.4765012,44.9524146 58.8765736,44.487788 C58.2334905,43.9899738 58.2740306,43.541941 58.9723659,43.1859875 C59.1008517,43.1205884 59.1832396,42.9624592 59.2823012,42.8430488 C59.3914978,42.7119252 59.4954635,42.575921 59.5690241,42.4835163 Z"/>
        <path d="M24.8148045,6.81920116 C25.3882502,7.13676109 25.7099552,7.58219096 25.6380293,8.30548577 C25.4627916,10.0719129 25.3872694,11.8503787 25.1453368,13.6067194 C25.0194664,14.5193788 24.6529712,15.4050326 24.347286,16.2864567 C23.3079565,19.2827778 23.0862939,22.4287686 22.6893936,25.5331122 C22.3369566,28.2902872 22.2254714,31.0770709 21.9681728,33.8472607 C21.8308597,35.3260618 21.579119,36.7941258 21.4382096,38.2729269 C21.3496099,39.2015294 21.3381671,40.1408691 21.3476483,41.0750029 C21.3842651,44.7708669 21.3322823,48.4722622 21.5320402,52.1596666 C21.6624876,54.5709747 22.0721384,56.9813067 22.5501189,59.3535705 C22.7855128,60.5232713 23.3576508,61.6656411 24.3619981,62.4745079 C24.9570216,62.9534507 25.1463176,62.9365315 25.4448101,62.2701763 C25.859038,61.3451528 26.2157252,60.3944252 26.6106639,59.4606168 C26.7505925,59.1293914 26.9294265,58.8150851 27.0906059,58.49297 C27.1595894,58.5212771 27.2285729,58.5495842 27.2975564,58.5778913 C27.2975564,58.9865545 27.3554241,59.4049787 27.2870944,59.8019287 C27.0530083,61.1652239 26.6747433,62.4911017 25.8194788,63.6093942 C25.6419525,63.8413821 25.2394943,64.0095978 24.9341361,64.0203349 C23.192875,64.0792267 22.5491381,62.7335014 21.9191324,61.4922195 C21.1116005,59.8998647 20.9187083,58.1399449 20.7859723,56.3829535 L20.5133076,52.8900789 C20.424708,51.7256247 20.3434644,50.5608044 20.2847794,49.3950081 C20.2131804,47.9741226 20.2864141,46.546079 20.291972,45.1216145 C20.2939336,44.5893111 20.2684326,44.0560317 20.2909912,43.5247045 C20.3197615,42.8411047 20.409342,42.1601078 20.4263427,41.476508 C20.4521706,40.4603813 20.4184962,39.4426277 20.4436703,38.426501 C20.4779986,37.0277406 20.5309622,35.6289802 20.5992918,34.2315213 C20.6963918,32.2383121 20.7983958,30.2447775 20.9324396,28.2538459 C20.9821339,27.5168856 21.1508328,26.7883849 21.2257012,26.05175 C21.3107045,25.2152269 21.3538601,24.3741486 21.4068237,23.5346971 C21.4130355,23.4361104 21.3649759,23.3339446 21.323782,23.1533649 C20.5904645,24.1489934 19.9441121,25.1000463 19.2222374,25.9912314 L17.9783549,27.529804 C17.1461212,28.5537275 16.3009553,29.5671428 15.4010095,30.5284991 C12.6178034,33.5010683 9.14476241,35.5154265 5.55402441,37.3583153 C4.28453196,38.0097036 3.08304219,38.7922155 1.85376286,39.5210416 C1.41272621,39.7823127 1.36041645,40.0969443 1.59123326,40.5843468 C2.37587964,42.24145 3.68198893,43.1912015 5.16562445,42.9588882 C5.80707287,42.8583492 6.47173374,42.6029347 7.01510136,42.2492588 C7.38440825,42.0088764 7.73760374,41.7444947 8.08544272,41.4718773 L9.12364496,40.6450814 C9.29758537,40.5084187 9.47287537,40.3736379 9.65085932,40.2427095 C10.1860535,39.8486879 10.7418447,39.4634513 11.3388298,39.1800551 C11.6968248,39.010538 12.1522466,39.0443763 12.563859,38.9871114 C12.6024375,39.0915548 12.6410159,39.1963235 12.6795943,39.3007669 C12.1571506,39.6264611 11.6314376,39.9472747 11.113244,40.2791509 C10.4191589,40.7236046 9.73651655,41.1859537 9.03850821,41.6245508 C7.98838981,42.2840733 6.99450439,43.0900118 5.8600365,43.5461788 C3.76862696,44.3872571 1.68114066,43.3825183 0.632656933,41.5825782 C-0.390325785,39.8255868 -0.231434893,39.2945849 1.54153899,38.2436437 C3.51427076,37.0742683 5.57331364,36.0487059 7.54277605,34.8741246 C9.12678093,33.9299044 10.6453986,32.8737573 12.1721897,31.8374577 C14.4682612,30.2789413 16.2346963,28.1773843 17.9256093,26.0322279 C19.4298418,24.1245907 20.6058305,22.0109951 21.6582375,19.8056455 C22.5020593,18.0375915 22.6472189,16.1784342 22.9790589,14.3290381 C23.3403232,12.3153307 23.7149918,10.3045516 24.0690635,8.28986806 C24.1674712,7.72860691 24.1452396,7.12569855 24.8148045,6.81920116 Z M68.2190883,3.31764737 C68.3796138,5.35217838 68.2805522,7.36458431 67.837227,9.34477874 L67.4653884,11.0181707 C67.0905665,12.6923151 66.6915616,14.3626161 66.131275,15.9741677 C65.5228471,17.7249772 64.5299425,19.3456391 63.6766396,21.0082736 C63.4575925,21.4351574 63.4749201,21.7331952 63.8257224,22.0693012 C65.3570906,23.5373651 67.4762897,23.6043911 69.1639333,22.1822041 C70.528891,21.0320255 71.6855906,19.6885778 72.7464979,18.255979 C73.0453174,17.8521963 73.4039661,17.4415809 73.8283291,17.1907216 C74.409668,16.8474808 74.6856553,16.3279581 74.9261567,15.7872287 L75.0841952,15.4253024 C75.1635473,15.2444701 75.2456199,15.0651106 75.340408,14.8929673 C76.3771221,13.0094074 77.5488606,11.2407026 79.2773712,9.88619239 C80.7498909,8.73243468 82.8602628,8.71388866 84.2239128,9.91710243 C85.0517147,10.6475554 85.1511033,11.8270172 84.3903232,12.6638657 C83.0704826,14.1153359 81.6492919,15.4412137 79.9354934,16.4547374 C78.7323689,17.1663189 77.5436297,17.6618556 76.1034766,17.7754093 C74.6139563,17.8928674 73.5435678,18.8963048 72.5921841,20.0715368 C71.5041411,21.4149845 70.2764965,22.6621231 69.0037346,23.8373551 C67.2556079,25.4515097 64.5119611,25.4153937 62.6291367,23.9798667 C62.2459677,23.6880109 62.0491522,23.7647979 61.7653718,24.1269334 L59.6850127,26.7923596 C58.6422176,28.1231518 57.5888299,29.4453464 56.4948367,30.7332212 C54.8856577,32.6278436 53.1865714,34.4534878 51.4390985,36.2231687 C50.3628252,37.3131541 49.0861402,38.15651 47.5256747,38.5114873 C46.7563943,38.6865357 46.0701556,38.6156053 45.3806476,38.2873082 C45.0834628,38.1457728 44.781374,38.0146492 44.4096477,37.8461082 C44.3122208,38.1343849 44.2131592,38.3527074 44.1654266,38.581767 L43.6312131,41.2595521 L43.6312131,41.2595521 C43.4925923,41.9249312 42.8053728,42.2851145 42.2417352,41.916797 C42.0606126,41.7983628 42.0171302,41.3376406 42.0508046,41.0503399 C42.1848483,39.9099224 42.355182,38.7727585 42.5474203,37.6401497 C42.9126078,35.4881606 41.3393918,34.3835335 39.6664604,34.0656482 C38.3681976,33.8193441 36.9963741,33.8567615 35.6647638,33.9218352 C34.9870255,33.9550229 34.3279226,34.332776 33.656723,34.5439404 C32.9325598,34.7720239 32.6357019,35.2617039 32.6804921,36.0058223 C32.834479,38.5609434 32.8115934,41.139491 33.1659921,43.6659796 C33.5916627,46.6984167 34.2318034,49.7123077 34.9902949,52.6809725 C35.3048073,53.9115173 36.1708608,55.0015027 36.7770001,56.1598156 C36.9244482,56.4419103 37.0372411,56.7419003 37.1614768,57.023995 C36.2281934,57.4930585 35.6713458,57.0734619 35.1906408,56.5600094 L35.032814,56.3864727 L35.032814,56.3864727 L34.8781558,56.2125253 L34.8781558,56.2125253 C34.2448808,55.5048482 33.7518614,54.6686504 33.09472,53.9870028 C32.5608335,53.4335505 31.8602097,53.043108 31.2589744,52.5491982 C29.8194753,51.3671334 28.1383704,50.6900409 26.3791278,50.1544839 C25.7419296,49.9602387 25.1102892,49.7292269 24.5057846,49.4507112 C22.5827471,48.5644067 22.0959394,47.4832062 22.802775,45.3842522 C23.4066258,43.590494 24.3920109,41.968856 25.6320791,40.5147829 C26.1355605,39.9239132 26.5615581,39.2624385 27.1010025,38.7080101 C28.3237431,37.4517612 29.5922547,36.2391117 30.8486698,35.0150744 C31.2066647,34.666279 31.4149229,34.3571787 31.3462663,33.7604523 C31.2625707,33.0316262 31.4982916,32.2666842 31.5937569,31.5170346 C31.6215464,31.2980614 31.7072037,31.0605422 31.6529323,30.8620672 C31.3747098,29.8381316 31.7274737,28.9013949 31.9638484,27.9340735 C32.1184891,27.2999297 32.1495481,26.6329237 32.2038194,25.9779564 C32.2790147,25.068876 32.2639757,24.1484077 32.3947501,23.2484376 C32.6723187,21.3388482 32.9910813,19.4341394 33.3464607,17.5372394 C33.6393954,15.9728662 33.9980442,14.4205318 34.3530966,12.868848 C34.4403886,12.4862144 34.647339,12.1318877 34.7643821,11.7538092 C35.1547437,10.4920291 35.6222622,9.24391441 35.8831571,7.95480329 C36.1241089,6.76558038 36.6079742,5.7240749 37.3220024,4.78538596 C37.5044327,4.54558917 37.9641047,4.35720064 38.263905,4.39591952 C38.9642019,4.48702278 40.3137936,6.02373955 40.0532257,7.01318603 C39.9976465,7.224025 39.8322169,7.40558078 39.7174624,7.60080205 C39.5902843,7.41924627 39.4392399,7.2490784 39.3434476,7.05223028 C39.2675985,6.896704 39.2734833,6.70376031 39.2185581,6.53521928 C39.0802641,6.10833544 38.8321197,5.6824277 38.355774,5.75661178 C38.1125336,5.79467993 37.8467346,6.18967763 37.7332879,6.47860511 C36.4850462,9.6568074 35.4774295,12.9163519 34.8497124,16.2683011 C34.3341344,19.0212464 33.9823512,21.8070539 33.6318758,24.5873302 C33.30919,27.1476571 33.0773924,29.7190467 32.8269594,32.2875078 C32.793285,32.6320734 32.8858079,32.9883522 32.9194823,33.3351953 C33.641357,33.0908434 34.2229761,32.8926938 34.8055761,32.6971471 C37.2209792,31.885352 39.6193816,31.9221187 41.8765477,33.124031 C42.8792604,33.6579612 43.7171973,34.501317 44.6231369,35.2128986 L44.8709937,35.4171209 L44.8709937,35.4171209 L45.3562713,35.839184 C45.5192685,35.9778276 45.6858751,36.1110466 45.8632052,36.2286999 C47.2602027,37.1546995 48.611756,36.648751 49.8096495,35.8704689 C50.8460366,35.1976062 51.7604766,34.3213881 52.6634738,33.4666443 C53.8904646,32.3050778 55.108955,31.1262666 56.2303455,29.865788 C57.289945,28.6749382 58.2367516,27.3825734 59.1992512,26.1097307 C59.8658737,25.2283067 60.4582817,24.2912446 61.1177116,23.4042893 C61.4054153,23.0174759 61.2572649,22.7601862 61.0420601,22.502323 L60.9202423,22.3608316 L60.9202423,22.3608316 C59.8805858,21.1618476 59.1560956,19.8092896 58.9952431,18.2143318 C58.944895,17.7152161 59.0334946,17.2021095 59.0589957,16.6955103 C59.0645536,16.5871625 59.1021512,16.4713312 59.0756694,16.3720937 C58.4463176,14.0326922 58.899124,11.6828788 59.0276098,9.34119968 C59.1345179,7.39647046 59.598767,5.51714036 60.4079336,3.736397 C61.0457857,2.33275606 62.065499,1.22357388 63.2342952,0.242912359 C63.3621272,0.13554066 63.5579618,0.0867353428 63.730584,0.0568014146 C65.5476943,-0.258155569 68.0140994,0.724132792 68.2190883,3.31764737 Z M31.1023067,35.9387313 C30.1901553,36.7824125 29.2606763,37.4315232 28.6097467,38.2901715 C28.3416089,38.6438974 28.0608134,38.9892542 27.7776782,39.3332875 L27.2113453,40.0216769 C26.7686503,40.5645367 26.3371672,41.1157296 25.9569537,41.7026091 C25.6921157,42.1113499 25.4520846,42.53764 25.2505448,42.990514 C24.8189893,43.9597876 24.3511439,44.9179987 24.0006685,45.9165555 C23.6949833,46.7875677 24.033689,47.7301611 24.85626,48.1537912 C26.041076,48.7638577 27.2896445,49.2541885 28.5228471,49.7666443 C29.779916,50.2891866 31.0095223,50.8449165 32.0338127,51.7738443 C32.2427248,51.9635343 32.5372941,52.0595181 32.7923042,52.1984506 L32.8942429,52.1170433 L32.8942429,52.1170433 L32.9962469,52.0357011 C32.9272634,51.6286648 32.8847617,51.2147957 32.7843924,50.8155682 C32.5503062,49.8859896 32.2053887,48.9765838 32.055652,48.0352919 C31.8737008,46.8909407 31.7037747,45.7415799 31.5755011,44.5891205 C31.507753,43.979844 31.4515071,43.36897 31.4113266,42.75755 C31.2759751,40.6963387 31.2978798,38.6253664 31.2449162,36.5582985 C31.2418336,36.4383769 31.1983979,36.3194114 31.1354031,36.0731367 Z M64.5544627,1.13286106 C64.2101337,1.0995433 63.935586,1.16248263 63.7008145,1.28696613 L63.5866046,1.3542897 C63.2901431,1.54624861 63.0555048,1.83732786 62.811567,2.14534364 C61.9196856,3.27209574 61.56496,4.6181464 61.3132193,5.96452243 C60.7289847,9.08643592 60.7332349,12.2509727 60.8440662,15.4148588 C60.8983375,16.9662171 61.1271927,18.4733254 61.9389748,19.8356445 C62.1344825,20.1639416 62.3659532,20.4707643 62.6232518,20.8494936 L62.6957181,20.7589178 C62.8069899,20.6232195 62.8718322,20.5587332 62.9067053,20.4809158 C63.6789281,18.7678492 64.5799637,17.0980566 65.1841415,15.327725 C65.6587557,13.9373592 66.0672827,12.5274558 66.388465,11.0989906 C66.7888301,9.31835775 67.053397,7.50951839 67.1411803,5.67364274 C67.1892399,4.67215762 67.0480035,3.62284329 66.7766467,2.65584727 C66.5245213,1.75725524 65.802779,1.3376815 64.9168617,1.18188296 L64.7375797,1.15391943 L64.7375797,1.15391943 Z M81.1726192,10.2577635 C80.1957344,10.5505955 79.3584514,11.0890808 78.7137336,11.8933924 C78.3429882,12.3563922 77.9359529,12.7985684 77.6217674,13.2976841 C77.0545334,14.1999317 76.5445133,15.1379699 75.9795679,16.1140763 C76.2356405,16.1462878 76.4765515,16.1634713 76.7162109,16.1610718 L76.8959381,16.155529 C77.5556714,16.1212204 78.2322386,15.9302023 79.2149265,15.4877414 C80.8917812,14.7322351 82.2639315,13.5628597 83.3558977,12.0876376 C83.7933381,11.4957918 83.7187967,11.1177132 83.1303119,10.6579672 C82.7445274,10.3562418 82.3148609,10.1853871 81.8633986,10.1673833 L81.6931217,10.1678397 C81.5219094,10.1755469 81.3480203,10.2051351 81.1726192,10.2577635 Z"/>
      </g>
    </g>
  </g>
</svg>
