<svg xmlns="http://www.w3.org/2000/svg" width="108" height="108" viewBox="0 0 108 108">
  <g id="favicon" fill="none" fill-rule="evenodd" stroke="none" stroke-width="1">
    <path id="OEM-Mark" fill="#201F1F" d="M2.32380116,32.1443465 C5.97731671,14.4695333 17.218356,4.62517294 34.7527022,1.65109146 C47.7146232,-0.546763478 60.6812848,-0.574514172 73.6210824,1.71293586 C91.6753277,4.90426564 102.528418,15.3226689 105.985984,33.2646817 C108.65738,47.1313069 108.699256,61.1454072 105.944107,74.9985535 C102.247925,92.5512636 90.716912,103.385927 73.2473556,106.348909 C60.2854347,108.546763 47.318773,108.574514 34.3789754,106.287064 C16.3247301,103.095734 5.42344249,92.1572038 1.96587674,74.215191 C-0.841420133,60.257385 -0.571199044,46.1544825 2.32380116,32.1443465 Z"/>
    <path id="Shape" fill="#FFF" fill-rule="nonzero" d="M28.0713204,45.5515729 C27.9272446,33.8874628 23.4631918,24.5274169 16.6950747,24.5274169 C14.8232377,24.5274169 13.0951895,25.8235248 12.5191734,28.9914697 C12.3750977,29.5674858 12.0869461,29.8556373 11.7990816,30.1435019 C11.2230655,30.4316534 10.0710334,30.8635937 9.063077,30.8635937 C5.4631918,30.8635937 2.87097597,28.4157407 2.87097597,24.8155685 C2.87097597,21.359759 6.03920787,17.4717223 11.5109301,17.4717223 C24.9030885,17.4717223 33.5433296,32.4478532 34.1190586,44.9758439 L34.4072102,44.9758439 C40.7431,44.9758439 47.3671413,46.8476809 52.1193456,50.1597015 L52.4072102,49.87155 C47.2233525,45.5515729 43.4793916,39.3594719 43.4793916,33.5995983 C43.4793916,27.4077843 49.2392653,22.6555799 57.0153387,22.6555799 C58.8871757,22.6555799 63.6393801,23.0875202 65.6552928,23.0875202 C69.6874053,23.0875202 76.1673709,20.6396672 76.1673709,13.8715501 C76.1673709,11.7115616 75.1591275,9.40749728 72.4234099,7.24750877 C71.127302,6.2395524 72.1352584,5.51946055 73.1432148,5.66353632 C80.0554076,6.6714927 86.5353732,12.8635937 86.5353732,21.6473366 C86.5353732,33.0235822 77.6075546,36.4796786 65.2230655,42.5277038 C60.7592997,44.6874053 59.8954191,47.7115615 59.8954191,49.87155 C59.8954191,51.0238691 60.1832836,51.5995982 60.4714352,52.1756143 C64.6476235,47.2793342 70.1193456,45.5515729 74.5833984,45.5515729 C80.9195752,45.5515729 86.5356602,50.1597015 89.127589,52.4634788 C94.0238691,56.9278186 96.7598737,57.5038347 98.4876349,57.5038347 C103.527704,57.5038347 105.543617,54.7678301 106.9838,52.1759013 C107.559816,51.1676579 108.423984,51.1676579 108.711848,52.0318255 C108.855924,52.4637658 109,53.1838576 109,54.7678301 C109,63.1199196 101.223927,74.063938 89.8479679,74.063938 C83.7999426,74.063938 78.7598737,72.4796786 70.1199196,63.9838002 C65.2236395,59.3756717 62.4879219,56.6396671 59.1759013,56.6396671 C58.3117337,57.2156831 57.7357176,58.5115041 57.7357176,59.9516877 C57.7357176,63.6956487 60.7598737,67.5839724 64.6479105,73.3438462 C69.8317681,80.8317681 71.8476809,83.8559242 71.8476809,88.7519173 C71.8476809,95.0878071 65.6558668,102 59.1759013,102 C58.743961,102 58.1676579,102 56.7280482,101.711848 C55.4319403,101.424271 55.4319403,100.703892 56.4398967,99.9840872 C58.0241561,98.9761309 60.4720092,96.9599311 60.4720092,94.0798508 C60.4720092,90.3361768 58.743961,89.0400689 50.5359472,83.999713 C46.0718944,81.2639954 39.7357176,76.3677153 39.7357176,68.4475661 C39.7357176,62.3995408 45.063651,56.6393801 51.5441906,53.4714352 C47.9440184,51.5995982 42.3282204,50.0153387 35.8479679,50.0153387 C35.127876,50.0153387 34.4080712,50.0153387 33.9761309,50.1594145 C32.680023,66.4313663 22.0238691,76.0795638 8.91986224,78.5277038 C9.35208955,85.2955339 12.6641102,89.4717222 14.680023,90.6237543 C16.2639954,91.4879219 18.2799082,91.3438462 19.5760161,91.3438462 C20.0079564,91.6319977 20.0079564,92.4958783 19.8641676,92.9281056 C17.2722388,95.3759587 13.5279908,97.8238117 10.0721814,97.8238117 C8.77578647,97.8238117 7.47996556,96.9599311 6.47200918,95.6641102 C4.88774973,93.6484845 1,86.8800804 1,76.8002296 C0.998851986,63.2637084 9.63909307,48.4316533 28.0713204,45.5515729 Z M22.7431,65.7115615 C25.7672561,61.3915844 27.3512285,56.2077268 27.9269576,51.0235821 C22.1670839,52.1756143 17.4148795,55.0556946 14.1028589,59.0875201 C10.7908382,63.2637084 8.91900123,68.5916418 8.77492546,75.2156831 C15.255178,73.3438462 19.7192308,69.8877497 22.7431,65.7115615 Z"/>
  </g>
</svg>
