<svg xmlns="http://www.w3.org/2000/svg" width="100" height="100" viewBox="0 0 100 100">
  <g id="icon" fill="none" fill-rule="evenodd" stroke="none" stroke-width="1">
    <g id="Group">
      <path id="Rectangle" fill="#1D1D1B" d="M0 -2H100V100H0z"/>
      <g id="Combined-Shape" fill="#FFF" stroke="#FFF" stroke-width="1.332" transform="translate(9.5 11.5)">
        <path d="M137.111941,18.2682238 C137.247307,18.6967606 137.382344,19.0832385 137.486091,19.4783268 C137.51738,19.5985423 137.493008,19.7565114 137.441628,19.873084 C137.142242,20.5490064 136.094884,21.0348359 135.387094,20.8854773 C135.16379,20.8384508 134.870332,20.8523601 134.679963,20.9626404 C131.75856,22.6545989 128.828264,24.3319858 125.943091,26.0842176 C123.32799,27.6721881 120.747802,29.3197695 118.186386,30.9938447 C116.834044,31.8777432 115.570627,32.8977534 114.238046,33.812782 C112.922591,34.7155573 111.54884,35.5318966 110.240631,36.4439447 C108.708459,37.512306 107.217456,38.6419342 105.711303,39.7483804 C103.350796,41.4827289 100.967564,43.1862784 98.6403221,44.9646728 C96.4540454,46.6354363 94.2806137,48.3300442 92.1855691,50.1143997 C88.3090285,53.416186 84.509887,56.809707 80.6475088,60.1290454 C78.3044578,62.1429032 75.9096977,64.0971501 73.5271238,66.0646438 C69.5109355,69.3810016 65.4730096,72.6708657 61.4755947,76.0100745 C60.7470554,76.6187689 60.1881353,77.4291471 59.5076822,78.1020889 C59.2748263,78.3315912 58.8644466,78.3719942 58.6108411,78.5885808 C57.0154322,79.9506919 55.4569114,81.3558553 53.8575502,82.7123364 C50.8801563,85.2378552 47.9304283,87.8001341 44.8789289,90.2325935 C42.4126981,92.1984313 39.8272399,94.0145794 37.2701064,95.8621888 C34.6836601,97.7309932 32.3574063,99.8908979 30.0769333,102.117037 C27.2016403,104.923721 24.1942748,107.595618 21.3693734,110.451315 C20.2024178,111.631323 19.117287,112.893606 18.0469997,114.169764 L16.7654932,115.703435 C16.5516674,115.958698 16.3373635,116.213421 16.1220459,116.467057 C15.8516432,116.785645 15.7350506,117.23637 15.5473167,117.625498 C15.5749827,117.664907 15.6029781,117.703985 15.6306442,117.742732 C15.6131882,117.756642 15.597379,117.779493 15.5779469,117.783135 C15.1899635,117.85798 14.6850581,117.837117 14.7637746,118.414018 C14.7759608,118.505091 15.3925185,118.514364 15.7301102,118.558078 C15.8299056,118.570994 15.9316771,118.572319 16.2333688,118.591858 C15.9623074,118.839906 15.8384689,119.031323 15.668191,119.094577 C15.2064314,119.265462 14.7318269,119.440321 14.2489885,119.496289 C13.9976885,119.525432 13.621562,119.379385 13.4746684,119.182669 C13.2605859,118.89488 13.2161226,118.58126 13.5458097,118.172925 C14.503582,116.986335 15.3049094,115.672907 16.249178,114.474395 C16.9978081,113.524593 17.8683007,112.672156 18.6818143,111.774679 C19.5888655,110.773546 20.5917598,109.841959 21.377278,108.752071 C22.5007173,107.192002 23.8461025,105.861621 25.2166835,104.552058 L26.1319778,103.679808 C26.2844293,103.534182 26.436652,103.388241 26.5883762,103.241698 C27.6706457,102.195856 28.6023987,100.991714 29.6849976,99.9458725 C31.1562387,98.5241505 32.6966448,97.1736305 34.2354042,95.8247663 C34.448828,95.6379852 34.8216609,95.6350047 35.1210471,95.5482376 C35.2017398,95.5247244 35.2972535,95.5267114 35.3641131,95.4829967 C36.0801426,95.0147186 36.8010299,94.5533506 37.5195139,94.0884837 C38.495105,93.4572657 39.4662647,92.8195968 40.4148141,92.1494178 C41.8251239,91.1525897 43.1079723,89.9703051 44.5334326,88.9983149 C47.2424,87.1513678 49.5597611,84.8477344 52.010512,82.700083 C53.926386,81.0210402 55.8096535,79.3049062 57.7067541,77.6046684 C57.7403486,77.5745317 57.7624156,77.5265117 57.8002917,77.5073038 C59.5933153,76.5796906 60.8102921,74.9410508 62.3902212,73.7412141 C64.5214951,72.1224447 66.5160856,70.3228552 68.6055311,68.6461307 C70.8955554,66.8081252 73.2514514,65.0525817 75.5319243,63.2029853 C77.2455727,61.8127246 78.8808338,60.3250993 80.5592409,58.8907928 C81.5160251,58.0734599 82.5087093,57.2978547 83.4503431,56.4639633 C84.5810282,55.4628299 85.6573693,54.3997673 86.7893719,53.4006209 C87.9997616,52.3315972 89.2440751,51.3016519 90.479496,50.2614401 C91.5779041,49.3361452 92.6555626,48.3830317 93.7925055,47.5080749 L96.1521585,45.711049 L96.1521585,45.711049 L100.894446,42.1467291 L100.894446,42.1467291 C102.706243,40.7789881 104.488398,39.3691883 106.32852,38.0408568 C106.9294,37.6070213 107.541821,37.189188 108.158342,36.7770138 L110.012763,35.5471252 C110.321403,35.3415256 110.629207,35.134755 110.935246,34.9255204 C111.259993,34.7039663 111.53336,34.4069048 111.849873,34.1277267 C112.347203,33.8402693 112.920615,33.5518184 113.449234,33.197133 C115.255761,31.9840494 117.049444,30.7510955 118.843785,29.5197975 C120.246519,28.5570801 121.621917,27.5532973 123.049024,26.6289958 C124.005479,26.0093727 125.036369,25.5069846 126.022466,24.9327321 C126.46644,24.6740866 126.872538,24.3485444 127.315195,24.0865873 C128.997554,23.0904214 130.699016,22.1263793 132.372483,21.1153108 C133.861839,20.2158472 135.321552,19.2680325 136.79971,18.349361 C136.902799,18.2847824 137.04574,18.2844513 137.111941,18.2682238 Z M46.727021,50.5729407 C47.9501359,51.3331313 48.0199543,52.4647273 48.0292214,53.6271018 L48.0312777,53.9763968 L48.0312777,53.9763968 C48.0540034,57.2583128 47.5744585,60.4766437 46.5877027,63.6009217 C46.1335184,65.0401959 45.5330992,66.4350929 44.9461837,67.8276718 C44.7185975,68.3684759 44.6823682,68.8354287 44.8994149,69.3858368 C45.3825827,70.609849 45.8074542,71.8437964 46.9167311,72.6915971 C47.7598869,73.3360581 48.4021345,73.2870446 48.9337179,72.3806265 C50.4349305,69.8196723 51.3897385,67.0504108 51.9727017,64.1447064 C51.9993797,64.011244 51.998721,63.8714894 52.0349504,63.7416699 C52.2401402,63.0001754 52.6936658,62.8044527 53.3675318,63.1439042 C54.2558096,63.5916489 54.9415324,64.2380969 55.443803,65.1090797 C55.6374653,65.4452194 55.9632001,65.7048584 56.2289918,65.9992704 L56.4088211,65.915815 L56.4088211,65.915815 L56.2714424,64.8174274 C56.2463746,64.6347308 56.2183426,64.4525861 56.1845285,64.2715453 C55.7711846,62.0569972 55.7290268,59.8590076 56.4934661,57.707051 C56.9120798,56.5290717 57.8125438,55.4501129 59.6437729,55.7233299 C62.0480844,56.0823205 64.5363821,58.2405694 64.6414472,61.3015935 C64.6562683,61.7288056 64.5512032,62.0811727 64.1530097,62.1334979 C63.8928171,62.1679398 63.5021988,62.006659 63.3358731,61.7986829 C62.915942,61.2727815 62.5730806,60.6813081 62.2298898,60.0977828 C61.5583294,58.9575571 60.5985809,58.1279708 59.4728362,57.4828475 C58.5983914,56.9821152 58.0394713,57.2384424 57.6814594,58.2329524 C56.9888201,60.1554067 57.0938852,62.1401214 57.4364173,64.0751602 C57.684753,65.4773431 58.3668529,66.7967329 58.714984,68.1893118 C58.8454097,68.7102456 58.6099189,69.3404662 58.4640134,69.9004783 C58.4370061,70.0034728 57.9380291,70.1309741 57.8253888,70.0385771 C56.9611541,69.3308622 56.0814395,68.6261279 55.3196351,67.8131002 C54.5723224,67.0156377 53.9577408,66.0916674 53.177163,65.0835794 C52.9900878,65.4750249 52.8468172,65.7128065 52.7585493,65.9697961 L52.4443619,66.9097699 L52.4443619,66.9097699 L51.8302957,68.795274 C51.5199172,69.7365481 51.1964056,70.672275 50.8232432,71.5874692 C50.3410635,72.7700849 49.6056077,73.845732 48.516751,74.6299477 C47.7200346,75.203869 46.9523017,75.1373034 46.1746881,74.7051238 C45.1536791,74.1381571 44.3523517,73.3125449 43.7232784,72.3339312 C43.5697977,72.0951561 43.5684803,71.7566981 43.497339,71.463942 C43.4314675,71.437117 43.3655959,71.4099609 43.3000537,71.383136 C42.9990208,71.7500747 42.6423263,72.0848897 42.408153,72.491238 C41.7790797,73.5817878 41.2349807,74.7223447 40.5966854,75.8069335 C39.7166415,77.3028381 38.8095903,78.7851646 37.8590639,80.2366921 C37.1453457,81.3275732 36.4355797,82.444948 35.5631111,83.4017043 C34.0589343,85.0519351 32.8969602,85.2029496 30.8618587,84.220693 C30.7646982,84.4690721 30.6688551,84.7114902 30.5749881,84.9552329 C30.056579,86.3007853 29.6455406,87.7039617 28.9792499,88.9710263 C28.5902784,89.7098713 27.7655666,90.2066296 27.185897,90.8567205 C26.5805375,91.5359546 25.9343376,92.2102211 25.4827881,92.9898003 C24.6155892,94.4876919 23.9601673,96.1127536 23.0557509,97.5844826 C21.9942309,99.3122077 20.8019559,100.963101 19.5892607,102.589487 C18.6993361,103.783032 17.5271519,104.671898 16.0470182,105.005388 C13.6588453,105.543543 11.5255952,104.878218 9.69337807,103.339261 C8.80477089,102.59313 7.98499948,101.707907 7.33056565,100.750157 C6.52660341,99.5735025 6.17451998,98.1822484 5.95549709,96.7548964 C5.62943292,94.626453 5.23255685,92.4973473 5.58925128,90.3480401 C5.87974481,88.5981265 6.33030619,86.8750378 6.70346851,85.1387022 C6.85464372,84.4359549 6.97683544,83.7272465 7.13525651,83.0261551 C7.20409228,82.7231326 7.34703354,82.4379934 7.43036104,82.1372891 C8.1733921,79.4501583 9.28135154,76.9322564 10.7822348,74.5819277 C11.4702631,73.5039624 11.9310346,72.2474953 12.7481711,71.2917325 C13.7441489,70.1266688 15.0260092,69.2129649 16.1487898,68.1525517 C17.0979988,67.2560687 18.2349417,67.0169624 19.4611406,67.116314 C20.0095212,67.1610223 20.5526321,67.3434981 21.0809219,67.5167012 C21.2215577,67.5627341 21.2989567,67.8054833 21.4050099,67.9581536 C21.2324265,68.0343232 21.0605017,68.1701038 20.8862715,68.1734155 C20.5513147,68.1787143 20.2114175,68.1283761 19.8797542,68.0671093 C18.8277856,67.8727112 17.8598032,68.0833367 16.9850291,68.684083 C15.5463945,69.6716383 14.3271121,70.8910142 13.2916114,72.298827 C12.9306353,72.7899552 12.5327711,73.2559145 12.2011079,73.7659196 C10.5273119,76.3374713 9.2434754,79.0855377 8.53041589,82.0879444 L8.34066619,82.8561519 L8.34066619,82.8561519 L7.94440614,84.3893838 C7.74901466,85.1564199 7.56605643,85.9255672 7.43299591,86.7034906 C7.03183818,89.05117 6.88198041,91.4296483 7.17477944,93.8081267 C7.3371528,95.1268541 7.44386471,96.4780365 7.82328483,97.7388089 C8.42106912,99.7261729 9.64759735,101.309176 11.4883778,102.343758 C11.9985529,102.631215 12.5093867,102.921322 13.0380059,103.171026 C14.2483956,103.743622 15.4370477,103.541607 16.6342631,103.068362 C18.2662307,102.423239 19.3257745,101.144252 20.2789358,99.7692253 C22.3377511,96.7986111 24.2338636,93.7296389 25.5588697,90.3430725 C25.6652523,90.0715113 25.6728275,89.6621826 25.5440486,89.4121476 C24.7661057,87.8993532 24.9255148,86.2888631 25.2067863,84.7508996 C25.4129643,83.6245832 26.038744,82.5694687 26.5209237,81.5027632 C26.7432402,81.0096479 26.9632511,80.3665116 27.3736309,80.1436327 C28.0073152,79.7992137 28.1341179,79.3729952 28.1864858,78.7497292 C28.2322665,78.2079316 29.3000443,78.0791056 29.8764204,78.5023436 C30.6250505,79.0524205 30.9511147,79.8389544 30.9833917,80.7142424 C31.0245614,81.8359224 31.7290576,82.3707654 32.6048199,82.7496264 C33.3909968,83.0904025 34.1307343,82.9476673 34.7894498,82.3479145 C36.2847339,80.9861347 37.5017107,79.413067 38.4920895,77.6475883 C38.9426509,76.8444958 39.4936664,76.0996897 39.9666241,75.3088506 C40.5416827,74.3471267 41.0851229,73.3661948 41.6361384,72.3902305 C41.8676769,71.9799082 42.044542,71.5321634 42.3139567,71.150322 C43.0533648,70.103818 42.7618832,69.045723 42.5464832,67.9091402 C42.1318218,65.7177741 41.7751274,63.5038883 41.5946394,61.2827167 C41.4638843,59.6742136 41.5126293,58.0173593 41.7461439,56.4214408 C41.9694485,54.8967242 42.1907769,53.3120655 43.0714795,51.9658507 C43.4288326,51.4194167 43.812205,50.8809308 44.2489334,50.3987441 C44.7805168,49.8122382 45.8660799,50.0377665 46.727021,50.5729407 Z M28.1666667,80.2271795 C27.2777778,83.3511538 25.5,84.69 25.9444444,88.2602564 L27.2777778,89.5991026 C29.0555556,87.8139744 29.9444444,83.3511538 28.1666667,80.2271795 Z M45.3868029,51.1728208 C44.962245,51.1882568 44.6226133,51.4369215 44.4590636,51.9151814 L44.367479,52.1795882 C44.0545014,53.072317 43.7138454,53.962937 43.5240829,54.8829143 C42.916083,57.8345897 43.0655699,60.7789203 43.5285064,63.7114854 C43.6039974,64.189967 43.6877735,64.6675724 43.7779518,65.1448463 C43.8678665,65.6197471 44.0233233,66.0817323 44.1481499,66.5496785 L44.2470643,66.5443135 L44.2470643,66.5443135 L44.3461598,66.5388492 C44.4535304,66.3427953 44.5823093,66.1553518 44.6649781,65.9493628 C45.3618991,64.2067349 45.9745045,62.4468861 46.2910173,60.5777505 C46.7531062,57.8488921 47.092674,55.1250012 46.9250309,52.3454733 C46.9024509,51.9726818 46.7827685,51.7351053 46.6065103,51.5740549 C46.3842383,51.3711401 46.0719876,51.2896649 45.751134,51.2121029 C45.6667714,51.1917595 45.5843916,51.1791547 45.504543,51.1742672 L45.3868029,51.1728208 L45.3868029,51.1728208 Z M92.8982992,34.0702683 C93.8745156,34.2090295 94.7756384,34.6743263 95.4017474,35.3876711 C95.9056648,35.9615925 96.2340344,36.787867 96.0509115,37.6297066 C95.9194978,38.2340957 95.8875501,38.7083343 96.6556123,38.952077 C96.4784179,39.0070515 96.2943069,39.1239553 96.1246877,39.1054097 C95.5397483,39.0418246 95.2485961,39.456121 94.8843264,39.7846437 C94.0372183,40.5479955 93.200979,41.3285683 92.3021617,42.0266792 C91.7135994,42.4836967 91.0130555,42.4313715 90.3042777,42.1955769 C90.0753741,42.1197385 89.6669705,42.2018692 89.5059145,42.370767 C88.2161496,43.7239364 87.0330966,45.1863926 85.6856941,46.4756458 C84.2253219,47.872861 82.6654836,49.1796663 80.7687124,49.9824276 C80.0428079,50.2894242 78.9005953,50.0711817 78.321255,49.5095138 C78.1644808,49.3578369 77.996179,49.2180823 77.7485019,48.9971905 C77.2300928,49.8439977 76.7416553,50.6090053 76.2861536,51.393221 C75.414673,52.8930996 74.2602741,54.1641383 72.9922468,55.3083381 C72.2396644,55.9879033 71.2924315,56.5038695 70.2299235,55.8829217 C69.9236208,55.7034264 69.5814181,55.3772219 69.5000667,55.0556537 C69.2299934,53.9876235 69.2118787,52.8719046 69.7009749,51.8691153 C69.9084703,51.4432279 70.4038243,51.0958284 70.8468105,50.8673196 C71.2739875,50.6470901 71.3507278,51.0170094 71.326026,51.3899092 C71.2687178,52.2661907 71.1741921,53.1447904 71.2005407,54.0197472 C71.2262306,54.8897365 71.4067187,54.9394123 72.1859791,54.477096 C73.4513715,53.7266599 74.2810236,52.5490117 75.0612721,51.3667272 C75.7410665,50.337113 76.269027,49.2015237 76.8052214,48.0841489 C76.9817571,47.7165478 76.9824158,47.2611861 77.0482874,46.8439092 C77.0729892,46.6889206 77.0400534,46.5253216 77.0581681,46.368346 C77.1069131,45.9411339 77.1135002,45.4639149 77.6529882,45.3466799 C77.9981551,45.2715038 78.6354623,45.8613214 78.7411862,46.2951569 C78.8054109,46.5591011 78.8492155,46.8316558 78.9473641,47.0826843 C79.6113493,48.7782857 80.3184804,49.0356064 81.7818168,48.1427663 C83.2059597,47.2737706 84.4967127,46.1345385 85.7015033,44.9638449 C86.9398884,43.7606965 88.0070074,42.3793775 89.1413155,41.0689293 C89.5039384,40.6499965 89.8316493,40.4032733 90.4663217,40.6533083 C91.5466151,41.0782021 92.7593103,40.6251586 93.4667707,39.6776751 C93.6554927,39.4246596 93.8791266,39.1905209 94.0247027,38.9149857 C94.1310853,38.7146265 94.1350375,38.4599551 94.1850999,38.2294593 C93.9930844,38.1950174 93.7997514,38.126796 93.6090532,38.1340818 C93.1693607,38.1503092 93.1179808,38.0844059 93.2207405,37.3717235 C93.4736872,37.5442642 93.6495642,37.6644796 93.8264293,37.7846951 C94.320466,37.6157973 94.8257007,37.4942572 94.6517998,36.7454769 C94.4802045,36.0066319 93.7355266,35.2674557 93.0152212,35.2475853 C92.2847058,35.2273838 91.6688068,35.4810617 91.127672,35.9940473 C90.3431419,36.7375288 89.4838476,37.403516 88.7223725,38.1685237 C88.0366496,38.8576929 87.4474286,39.6432332 86.8002407,40.3728055 C86.2215591,41.0245522 85.6254216,41.6613963 85.0276373,42.2955909 C84.9166438,42.4134882 84.7601989,42.4876708 84.5059347,42.4843591 C84.950897,41.7564427 85.3336107,40.9801752 85.8543253,40.3118698 C86.8674297,39.0110256 87.902601,37.7174672 89.0355917,36.5235916 C89.8474585,35.668174 90.8062189,34.9435693 91.7583921,34.2404908 C92.035382,34.0358264 92.5274424,34.0172808 92.8982992,34.0702683 Z M61.5102761,46.7079299 C61.6897761,46.7364107 61.7724449,46.7251509 61.8202017,46.7609174 C62.5368842,47.2964228 63.2637767,47.8203371 63.9419243,48.4018754 C64.0229463,48.4714216 63.8622197,49.0552781 63.7627537,49.0708432 C63.240063,49.1516492 63.2529079,49.4904383 63.2660822,49.8673122 C63.2729987,50.0706519 63.3184501,50.2918749 63.2555428,50.473026 C63.1768263,50.7005413 63.0045722,50.8949393 62.8724997,51.1032466 C62.5968273,50.9234201 62.0981797,50.7588276 62.0840173,50.5597931 C62.0191338,49.6626478 61.4170679,49.2208641 60.8126964,48.7479503 C60.1648497,48.2412569 60.2056901,47.7852329 60.9091982,47.4229306 C61.0386358,47.356365 61.121634,47.1954153 61.2214294,47.0738751 C61.3314349,46.9404128 61.4361706,46.8019828 61.5102761,46.7079299 Z"/>
        <path d="M24.9986178,5.44083018 C25.5763113,5.7640542 25.9003993,6.21742887 25.8279406,6.95362455 C25.6514049,8.75155813 25.5753232,10.5617451 25.3315985,12.3494123 C25.2047958,13.2783502 24.8355858,14.1798008 24.5276363,15.0769461 C23.480608,18.1267104 23.2573035,21.3288139 22.8574632,24.4885273 C22.5024155,27.2948801 22.3901045,30.1313695 22.1309,32.9509692 C21.9925698,34.4561466 21.7389643,35.9503953 21.5970111,37.4555727 C21.5077552,38.400738 21.4962276,39.356832 21.505779,40.3076272 C21.5426671,44.0694116 21.4902992,47.836826 21.6915368,51.5899999 C21.8229505,54.0443167 22.2356358,56.4976399 22.7171568,58.912216 C22.9542944,60.1027799 23.5306704,61.2655253 24.5424574,62.0888193 C25.1418885,62.5763046 25.3325866,62.5590837 25.6332902,61.8808431 C26.0505865,60.9393207 26.4099158,59.9716357 26.8077799,59.0211717 L26.9596992,58.6888465 L26.9596992,58.6888465 L27.2912771,58.0362657 L27.2912771,58.0362657 L27.4997605,58.1227016 L27.4997605,58.1227016 C27.4997605,58.5386538 27.5580568,58.9645412 27.4892211,59.3685712 C27.2534009,60.7561825 26.872334,62.105709 26.0107342,63.2439477 C25.8318929,63.4800734 25.4264536,63.6512894 25.1188334,63.6622181 C23.3646741,63.7221603 22.7161687,62.3524323 22.0814963,61.0890105 C21.2679827,59.4682541 21.0736617,57.6769439 20.9399424,55.8886143 C20.7624186,53.5184153 20.5532764,51.1492098 20.435037,48.7760302 C20.3629077,47.3298014 20.4366838,45.8762869 20.4422829,44.4264152 C20.444259,43.8846176 20.4185691,43.3418264 20.4412948,42.8010223 C20.4702783,42.1052296 20.5605223,41.4120863 20.5776489,40.7162936 C20.6036682,39.682043 20.5697443,38.6461366 20.5951049,37.611886 C20.6296874,36.1881769 20.6830434,34.7644678 20.7518792,33.3420835 C20.8496984,31.3133229 20.952458,29.2842312 21.0874947,27.2577888 C21.1375571,26.5076839 21.3075057,25.7661895 21.3829286,25.0164157 C21.4685616,24.1649721 21.5120368,23.3088921 21.5653928,22.454468 C21.5716506,22.3541228 21.523235,22.2501348 21.4817359,22.0663343 C20.7429865,23.079721 20.0918462,24.0477372 19.3646244,24.9548177 C18.1107594,26.5182814 16.8750092,28.1052583 15.5150911,29.5730133 C12.7112687,32.598602 9.21250139,34.6488888 5.59516533,36.5246478 C4.31626923,37.1876544 3.10587954,37.9841234 1.86749444,38.725949 C1.42319085,38.9918803 1.37049361,39.3121237 1.60302017,39.8082196 C2.39347875,41.4948794 3.70926292,42.4615709 5.20388834,42.2251139 C5.85008822,42.1227817 6.51967251,41.8628116 7.06706507,41.5028275 C7.99717133,40.8911525 8.8258354,40.1268072 9.72234717,39.4604889 C10.2615058,39.0594394 10.8214139,38.6673316 11.4228212,38.3788806 C11.7834679,38.20634 12.2422632,38.2407819 12.6569246,38.1824956 C12.6957888,38.2888018 12.7346531,38.3954392 12.7735173,38.5017455 C12.2472036,38.8332488 11.7175964,39.1597846 11.1955643,39.4975801 C10.4963379,39.9499613 9.8086389,40.4205569 9.10546012,40.866977 C8.04756306,41.5382629 7.04631553,42.3585763 5.90344418,42.8228797 C3.79654272,43.6789597 1.69359355,42.6563001 0.63734328,40.8242558 C-0.393217087,39.0359262 -0.233149226,38.4954532 1.5529578,37.4257672 C3.5403024,36.2355345 5.61459744,35.1916799 7.59864846,33.9961485 C9.19438671,33.0350869 10.7242534,31.9601021 12.2623541,30.9053188 C14.5754335,29.3190042 16.3549533,27.1799634 18.0583916,24.9965454 C19.5737665,23.0548831 20.7584663,20.9035888 21.8186689,18.658904 C22.6687412,16.8593146 22.814976,14.966997 23.1492741,13.0846145 C23.5132144,11.0349901 23.8906584,8.98834621 24.2473528,6.93772828 C24.3464895,6.36645633 24.3240932,5.75279435 24.9986178,5.44083018 Z M68.2244148,3.37682179 C68.3861295,5.44764121 68.2863341,7.49594094 67.839725,9.51145462 C67.3374544,11.7786591 66.8737188,14.0720262 66.1211363,16.2590871 C65.5082016,18.0411244 64.5079421,19.6906929 63.6483184,21.3829825 C63.4276487,21.8174804 63.4451047,22.1208341 63.7985055,22.4629349 C65.3412172,23.9571836 67.4761141,24.0254051 69.1762587,22.5778516 C70.5513273,21.4071581 71.716595,20.0397483 72.7853608,18.5815973 C73.0863938,18.1706127 73.4476992,17.7526735 73.8752056,17.4973397 C74.7862091,16.9538862 74.9528641,15.9762661 75.3984851,15.158602 C76.4428785,13.2414465 77.6232967,11.4411947 79.364611,10.0625251 C80.8480383,8.88818864 82.9740425,8.86931182 84.3477936,10.0939864 C85.1817274,10.8374679 85.2818522,12.0379669 84.5154367,12.8897417 C83.1858195,14.3671006 81.7541014,15.7166271 80.0276082,16.7482283 C78.8155717,17.4725018 77.6180269,17.976877 76.1672061,18.0924561 C74.6666522,18.2120092 73.588335,19.2333441 72.629904,20.4295379 C71.5338014,21.7969477 70.2970631,23.0663305 69.0148734,24.2625243 C67.2537976,25.9054694 64.4898274,25.8687092 62.5930562,24.4075777 C62.2070489,24.1105163 62.0087756,24.1886729 61.7228931,24.5572675 C59.9733447,26.8148681 58.2501451,29.0966441 56.4133169,31.2813868 C54.7922181,33.2098022 53.080546,35.0680091 51.3201289,36.8692544 C50.2358832,37.9786811 48.9497412,38.8370793 47.3777167,39.1983881 C46.602738,39.3765587 45.9114161,39.3043632 45.2168006,38.9702105 C44.9174144,38.8261506 44.6130878,38.6926882 44.2386081,38.5211411 C44.1404595,38.8145596 44.0406641,39.0367761 43.9925779,39.2699213 L43.4544073,41.9954681 L43.4544073,41.9954681 C43.3147596,42.6727151 42.6224497,43.0393227 42.0546369,42.6644358 C41.8721727,42.5438891 41.8283682,42.0749494 41.862292,41.7825244 C41.9973287,40.621766 42.1689241,39.4643193 42.3625864,38.3115091 C42.730479,36.1211365 41.1456096,34.9968071 39.460286,34.6732519 C38.1524064,34.4225546 36.7704214,34.4606394 35.4289473,34.5268738 C34.7461887,34.5606534 34.0822035,34.9451442 33.406032,35.160075 C32.6765046,35.3922266 32.3774478,35.8906407 32.4225698,36.6480314 C32.5776973,39.2487263 32.5546423,41.8732655 32.9116661,44.4448172 C33.3404899,47.5313416 33.9853723,50.5989892 34.7494823,53.6206039 C35.0663244,54.873097 35.9387931,55.9825236 36.5494223,57.1614965 C36.6979626,57.4486227 36.8115911,57.7539634 36.936747,58.0410897 C35.7876179,58.624615 35.204984,57.856958 34.6365126,57.2151464 C33.9985466,56.4948469 33.5018751,55.6437345 32.8398661,54.9499289 C32.3020249,54.3866051 31.5962113,53.9891985 30.9905224,53.4864792 C29.5403603,52.2833308 27.8468028,51.5941615 26.0745288,51.0490522 C25.4326105,50.8513424 24.7962914,50.6162102 24.1873089,50.3327268 C22.2500267,49.4306139 21.759613,48.3301289 22.4716844,46.1937374 C23.0800082,44.3679853 24.0726924,42.7174233 25.3219463,41.237415 C25.8291572,40.6360064 26.2583104,39.9627334 26.8017506,39.3984161 C28.0335486,38.1197604 29.3114566,36.8854818 30.5771784,35.6396122 C30.9378251,35.2845957 31.147626,34.9699822 31.0784609,34.3626124 C30.9941453,33.6207868 31.2316122,32.8422011 31.3277847,32.0791805 C31.3557801,31.8563016 31.4420718,31.614546 31.3873985,31.412531 C31.107115,30.3703322 31.462492,29.4168876 31.7006177,28.4323128 C31.8564039,27.7868583 31.8876929,27.1079554 31.9423662,26.4413059 C32.0181185,25.5160109 32.0029681,24.5791249 32.1347112,23.6631028 C32.4143359,21.7194534 32.7354597,19.7807717 33.0934715,17.8500381 C33.3885761,16.2577624 33.7498815,14.6777401 34.107564,13.0983801 C34.1955025,12.7089217 34.403986,12.3482752 34.5218961,11.9634532 C34.9151492,10.6791676 35.3861308,9.40879125 35.6489582,8.09668721 C35.8916949,6.88625301 36.3791444,5.82617098 37.0984617,4.87073934 C37.2822433,4.62666546 37.7453203,4.43491679 38.0473413,4.47432628 C38.7528256,4.56705448 40.1124143,6.13118052 39.8499162,7.13827502 C39.7939254,7.35287457 39.6272704,7.53766863 39.5116658,7.73637191 C39.3835457,7.55157786 39.2313824,7.37837482 39.1348806,7.17801568 C39.0584696,7.01971539 39.064398,6.82333031 39.0090659,6.65178314 C38.8697476,6.21728528 38.6197651,5.78378094 38.1398908,5.85928819 C37.8948487,5.89803533 37.6270808,6.30007832 37.5127937,6.59415918 C36.2553058,9.8290487 35.2402253,13.1467313 34.6078584,16.5584667 C34.0884613,19.3605142 33.7340724,22.1960101 33.3810009,25.0258761 C33.1859552,26.5894723 33.0238717,28.157122 32.8709179,29.7257494 L32.5701221,32.8633961 L32.5701221,32.8633961 C32.5361983,33.2141074 32.6294065,33.5767409 32.6633303,33.9297704 C33.3905522,33.6810602 33.9764796,33.4793763 34.5633951,33.2803419 C36.9966901,32.4540674 39.4128585,32.4914898 41.6867443,33.7148397 C42.6968845,34.2582932 43.5410284,35.1166914 44.4536787,35.8409649 C44.8772328,36.1771046 45.2563235,36.5755047 45.7029326,36.8748843 C47.1102782,37.8174003 48.4718431,37.3024276 49.6786099,36.5102638 C50.7226739,35.8253998 51.6438875,34.9335532 52.5535736,34.063564 C53.7896532,32.8812794 55.0171695,31.6814427 56.1468665,30.3984819 C57.214315,29.1863918 58.168135,27.870976 59.1377642,26.5754306 C59.8093246,25.6782853 60.4061208,24.7245095 61.0704354,23.8217342 C61.4129674,23.3564373 61.1422354,23.0752722 60.8715033,22.7596651 C59.8241457,21.5392958 59.0942889,20.1626132 58.9322449,18.5392073 C58.8815238,18.0311892 58.9707798,17.5089308 58.9964697,16.9932957 C59.0020688,16.8830154 59.0399449,16.7651181 59.0132669,16.6641106 C58.3792533,14.2829829 58.8354138,11.8912577 58.9648513,9.50781172 C59.0725513,7.52839581 59.5402393,5.61554549 60.3553997,3.80304034 C60.9979767,2.3743637 62.0252435,1.24539785 63.2026974,0.247245007 C63.3314763,0.137958199 63.5287615,0.0882823766 63.7026624,0.0578145392 C65.5332327,-0.262760098 68.0179075,0.73704861 68.2244148,3.37682179 Z M31.8326942,36.0797437 C31.5243218,36.3679209 31.2139837,36.6337952 30.9129445,36.8929114 C30.8907179,36.812236 30.8633073,36.7106634 30.83276,36.57981 C29.9138519,37.4382082 28.9774879,38.0992278 28.3217366,38.9731911 C27.1511992,40.533343 25.7408894,41.9335389 24.9375858,43.7573039 C24.5028336,44.7438657 24.0315227,45.7191677 23.6784512,46.735535 C23.3705017,47.6220828 23.7117163,48.5814885 24.5403804,49.0126747 C25.7339729,49.6336224 26.9917901,50.1326989 28.2341275,50.654295 C29.500508,51.1861575 30.7392224,51.7517995 31.7711002,52.697296 C31.9815598,52.8903693 32.2783111,52.9880651 32.5352102,53.1294756 C32.6037166,53.0741699 32.672223,53.0188641 32.7404001,52.9635584 C32.6892975,52.6574562 32.6525786,52.3475575 32.5959702,52.0426782 L32.7710344,52.1972297 C32.9814939,52.3903031 33.2782453,52.4879989 33.5351443,52.6294094 C33.6036507,52.5741036 33.6721571,52.519129 33.7406635,52.4638233 C33.6711691,52.0495269 33.6283525,51.628276 33.5272397,51.2219277 C33.2914196,50.2757689 32.9439472,49.3501428 32.7931013,48.3920618 C32.5128179,46.611018 32.2608592,44.818052 32.1439372,43.0201184 C32.0075831,40.9221428 32.0296501,38.8142321 31.9762941,36.7106267 C31.9726712,36.5678915 31.9137162,36.4268121 31.8326942,36.0797437 Z M65.5326439,0.65306706 C64.9469956,0.595812253 64.5617299,0.817829247 64.2313774,1.14908084 C63.5592636,1.19970569 63.1807021,1.66837757 62.7768378,2.18360854 C61.8783499,3.33045768 61.5209968,4.70051685 61.2673913,6.07090719 C60.678829,9.24850393 60.6831107,12.4694842 60.794763,15.6898022 C60.8494363,17.268831 61.0799868,18.8028203 61.897782,20.1894381 C62.0947379,20.5235908 62.3279232,20.8358861 62.5871278,21.2213705 C62.7448901,21.0167061 62.8305231,20.9411989 62.8726809,20.8461525 C62.9772544,20.6117695 63.0841727,20.3781825 63.1923943,20.1450358 C63.3142031,20.3254853 63.4468554,20.512647 63.5871278,20.7214368 C63.7448901,20.5167724 63.8305231,20.4412651 63.8726809,20.3462187 C64.6506239,18.6025974 65.5583338,16.9030219 66.1669869,15.1011143 C67.2410225,11.9221928 67.9791132,8.64292625 68.1385224,5.27457436 C68.186938,4.25555766 68.0446554,3.18752749 67.7712885,2.20328387 C67.4834298,1.16671506 66.5879061,0.756061597 65.5326439,0.65306706 Z M84.246092,10.3480654 C83.6631288,9.88740494 82.9806995,9.72645528 82.2738978,9.94072366 C81.800164,10.0842006 81.3590189,10.2856168 80.9564143,10.5472626 C80.1078206,10.8617446 79.3753464,11.376292 78.7967983,12.105526 C78.4233066,12.576784 78.0132562,13.0268469 77.6967434,13.534865 C77.1253078,14.4532054 76.6115097,15.4079747 76.0423795,16.4014911 C77.0742573,16.5326353 77.8617517,16.4190432 79.3017037,15.7639847 C79.5802299,15.6371957 79.8504114,15.498955 80.1123588,15.3497553 L80.3017037,15.2639847 C81.9909795,14.495003 83.373294,13.3047703 84.4733488,11.8032358 C84.9140295,11.2008337 84.8389359,10.8160116 84.246092,10.3480654 Z"/>
      </g>
    </g>
  </g>
</svg>
