<svg xmlns="http://www.w3.org/2000/svg" width="100" height="100" viewBox="0 0 100 100">
  <g id="icon" fill="none" fill-rule="evenodd" stroke="none" stroke-width="1">
    <g id="Group">
      <path id="Rectangle" fill="#1D1D1B" stroke="#979797" d="M0.5 -1.5H99.5V99.5H0.5z"/>
      <g id="Combined-Shape" fill="#FFF" stroke="#FFF" stroke-width="1.5" transform="translate(3 3)">
        <path d="M151.563434,16.5831867 C151.71572,17.0633054 151.867637,17.4963028 151.984353,17.9389471 C152.019553,18.0736326 151.992134,18.2506161 151.934332,18.3812203 C151.597522,19.1385018 150.419245,19.6828096 149.622981,19.515473 C149.371764,19.4627861 149.041624,19.4783695 148.827459,19.601924 C145.54088,21.4975397 142.244297,23.3768298 138.998477,25.3399738 C136.056489,27.1190846 133.153777,28.9649816 130.272185,30.8405614 C128.750799,31.8308527 127.329456,32.9736392 125.830302,33.9988078 C124.350415,35.010248 122.804945,35.9248483 121.33321,36.9466775 C119.609516,38.143635 117.932138,39.409234 116.237716,40.6488605 C113.582146,42.5919686 110.901009,44.5005705 108.282862,46.4930262 C105.823301,48.3648956 103.37819,50.2634796 101.021265,52.2626139 C96.6601571,55.9618286 92.3861228,59.76382 88.0409474,63.4826995 C85.405015,65.7389608 82.7109099,67.9284359 80.0305143,70.1327523 C75.5123024,73.8482926 70.9696358,77.5341501 66.4725441,81.2752917 C65.6529373,81.9572533 65.0241522,82.8651749 64.2586425,83.6191172 C63.9966796,83.8762441 63.5350024,83.9215103 63.2496963,84.164167 C61.4548613,85.6902322 59.7015253,87.2645319 57.902244,88.7842895 C54.5526758,91.6137992 51.2342319,94.4844938 47.801295,97.2097427 C45.0267854,99.412204 42.1181449,101.446958 39.2413697,103.51696 C36.3316176,105.610708 33.7145821,108.030595 31.14905,110.52469 C30.2248487,111.423123 29.2885182,112.30923 28.3483118,113.191334 L25.5243179,115.833963 C24.1147602,117.157599 22.7150511,118.490961 21.3530451,119.862146 C19.252525,121.977414 17.3876603,124.32866 15.4498017,126.601989 C15.1455986,126.958924 15.0144319,127.463902 14.8032312,127.899868 L14.8969747,128.031214 L14.8969747,128.031214 C14.8773367,128.046798 14.8595514,128.072399 14.8376903,128.07648 C14.401209,128.160334 13.8331904,128.136959 13.9217464,128.783301 C13.9354559,128.885336 14.6290833,128.895725 15.008874,128.944701 C15.1211438,128.959172 15.2356368,128.960656 15.5750399,128.982547 C15.2700958,129.260452 15.1307775,129.47491 14.9392148,129.545777 C14.4197353,129.737231 13.8858053,129.933137 13.342612,129.995842 C13.0598996,130.028493 12.6367572,129.864867 12.471502,129.644473 C12.2306591,129.322043 12.1806379,128.970674 12.5515359,128.513188 C13.6290297,127.183771 14.530523,125.712248 15.5928253,124.369474 C16.4350342,123.305347 17.4143382,122.350304 18.3295411,121.3448 C19.3499737,120.223163 20.4782298,119.179442 21.3619378,117.958367 C23.0470966,115.627899 25.1761474,113.754917 27.2244232,111.784723 C28.4419764,110.612996 29.4901986,109.263914 30.7081223,108.092187 C32.3632685,106.499335 34.0962254,104.986256 35.8273297,103.475033 C36.0674315,103.265769 36.4868686,103.26243 36.823678,103.165219 C36.9144572,103.138875 37.0219102,103.141102 37.0971273,103.092125 C38.996451,101.855096 40.926158,100.661106 42.7791658,99.3572909 C44.3657644,98.2404768 45.8089689,96.9158834 47.4126117,95.8268969 C50.4602,93.757637 53.0672312,91.1767205 55.824326,88.7705613 C57.9796842,86.8894159 60.0983602,84.9667148 62.2325984,83.0618232 C62.2703922,83.0280591 62.2952175,82.9742591 62.3378282,82.9527391 C64.3549797,81.9134712 65.7240786,80.0775921 67.5014988,78.7333338 C69.899182,76.9197168 72.1430963,74.9035149 74.4937225,73.0249668 C77.0699999,70.9657249 79.7203828,68.9988706 82.2859149,66.9266425 C84.2137692,65.3690393 86.0534381,63.702352 87.941646,62.0954012 C89.0180283,61.1796879 90.134798,60.3107249 91.194136,59.3764599 L92.1386221,58.5244253 L92.1386221,58.5244253 L94.0052236,56.7951723 C94.3177056,56.5085713 94.6321677,56.2242428 94.9505434,55.94439 C96.3122318,54.7466904 97.7120845,53.5927728 99.101933,52.4273532 C100.337642,51.3906826 101.550008,50.3228451 102.829069,49.3425717 C105.472782,47.3148678 108.155771,45.3391086 110.818752,43.3358929 C112.857024,41.8035201 114.861948,40.2240259 116.932085,38.7358062 C117.608075,38.2497509 118.297049,37.781624 118.990635,37.3198374 L121.076858,35.9419099 C121.424078,35.7115627 121.770358,35.4799036 122.114652,35.2454839 C122.479992,34.9972618 122.78753,34.6644438 123.143607,34.3516616 C123.703104,34.0296036 124.348192,33.7064325 124.942888,33.3090545 C126.975231,31.9499548 128.993124,30.5685931 131.011758,29.1890865 C132.589834,28.110489 134.137157,26.9858832 135.742652,25.9503257 C136.818664,25.25612 137.978415,24.6932605 139.087774,24.0498866 C139.587245,23.7601086 140.044105,23.3953816 140.542094,23.1018932 C142.434749,21.9858212 144.348893,20.9057395 146.231543,19.772971 C147.907069,18.7652411 149.549246,17.7033401 151.212174,16.6740902 C151.328149,16.6017384 151.488958,16.6013674 151.563434,16.5831867 Z M49.8803987,52.7763483 C51.3940033,53.7132107 51.3376831,55.1535669 51.3476874,56.5894707 C51.3732538,60.2664234 50.8337658,63.8721374 49.7236655,67.3724776 C49.2127082,68.9849939 48.5372366,70.5477916 47.8769567,72.107992 C47.6209222,72.7138914 47.5801642,73.2370502 47.8243418,73.8537097 C48.3679056,75.2250535 48.845886,76.6075283 50.0938225,77.5573768 C51.0423728,78.2794101 51.7649013,78.224497 52.3629326,77.2089754 C54.0517968,74.339765 55.1259559,71.2371738 55.7817895,67.9817164 C55.8118022,67.8321895 55.8110611,67.6756129 55.8518192,67.5301673 C56.0826578,66.6994209 56.5928741,66.4801395 57.3509732,66.8604499 C58.3502858,67.3620887 59.121724,68.0863482 59.6867783,69.0621691 C59.9046485,69.4387692 60.2711001,69.7296603 60.5701158,70.0595101 C60.6375518,70.0283432 60.7049878,69.9971763 60.7724238,69.9660094 C60.6897962,69.3519471 60.634217,68.7323194 60.5200946,68.1238227 C60.0550826,65.6427144 60.0076551,63.1801579 60.8676493,60.7691752 C61.3385897,59.4494052 62.3516118,58.2405746 64.4117445,58.5466781 C67.1165949,58.9488796 69.9159298,61.366912 70.0341281,64.7963846 C70.0508018,65.2750192 69.9326036,65.6698 69.4846359,65.7284234 C69.1919192,65.767011 68.7524736,65.5863172 68.5653573,65.3533075 C68.0929348,64.7641046 67.7072157,64.1014368 67.3211261,63.4476739 C66.5656206,62.1702018 65.4859036,61.2407602 64.2194407,60.5179848 C63.2356903,59.9569806 62.6069052,60.2441613 62.2041419,61.3583782 C61.4249226,63.5122339 61.5431209,65.7358441 61.9284694,67.9037992 C62.2078472,69.4747596 62.9752095,70.9529613 63.366857,72.5131617 C63.5135859,73.0967991 63.2486588,73.8028779 63.0845151,74.4302974 C63.0541319,74.5456892 62.4927828,74.6885375 62.3660624,74.5850188 C61.3937983,73.7921179 60.4041195,73.0025563 59.5470895,72.0916665 C58.7063627,71.1982152 58.0149584,70.1630287 57.1368084,69.0335995 C56.9263488,69.4721623 56.7651693,69.7385652 56.665868,70.026488 C55.944451,72.1269147 55.3282639,74.2696394 54.4886486,76.3203475 C53.9461964,77.645312 53.1188086,78.8504323 51.8938449,79.7290422 C50.9975389,80.3720451 50.1338394,80.2974672 49.2590241,79.8132671 C48.110389,79.1780559 47.2088957,78.2530667 46.5011882,77.1566595 C46.3285225,76.8891436 46.3270403,76.5099462 46.2470064,76.1819516 L46.0250605,76.0914192 L46.0250605,76.0914192 C45.6863984,76.5025255 45.2851171,76.8776415 45.0216721,77.3329009 C44.3139647,78.5547178 43.7018533,79.8325609 42.9837711,81.0476991 C41.9937217,82.7236623 40.9732891,84.3844131 39.9039469,86.0106576 C39.1010139,87.2328455 38.3025272,88.4847162 37.321,89.5566351 C35.6288011,91.4055004 34.3215802,91.5746922 32.0320911,90.4742036 C31.9227855,90.7524796 31.814962,91.0240769 31.7093616,91.2971583 C31.1261514,92.8046718 30.6637332,94.3767453 29.9141561,95.7963236 C29.4765632,96.6241018 28.5487624,97.1806536 27.8966341,97.9089945 C27.2156046,98.6699864 26.4886298,99.4254128 25.9806366,100.298828 C25.0050378,101.977018 24.2676882,103.797684 23.2502198,105.446562 C22.0560098,107.382249 20.7147004,109.231857 19.3504183,111.054008 C18.3492531,112.391216 17.0305459,113.387073 15.3653955,113.760705 C12.6787009,114.363636 10.2787946,113.618228 8.21755033,111.89403 C7.21786725,111.058089 6.29562441,110.066314 5.55938636,108.993282 C4.65492883,107.674996 4.25883498,106.116279 4.01243422,104.51712 L3.9382824,104.040176 L3.9382824,104.040176 L3.79020075,103.086073 C3.50092848,101.177423 3.2793827,99.2654969 3.60040769,97.3390854 C3.92721291,95.3785387 4.43409447,93.4480458 4.85390208,91.5027115 C5.02397418,90.7153761 5.16143987,89.9213621 5.33966357,89.1358819 C5.41710381,88.7963853 5.57791273,88.4769245 5.67165617,88.1400251 C6.50756612,85.1294505 7.75402048,82.3084746 9.4425141,79.6752422 C10.216546,78.4675247 10.7349139,77.0598195 11.6541925,75.9890137 C12.7746675,74.683714 14.2167604,73.6600296 15.4798885,72.4719769 C16.5477486,71.4675863 17.8268094,71.1996993 19.2062831,71.3110097 C19.8232113,71.3610994 20.4342111,71.5655394 21.0285372,71.7595905 C21.1867524,71.8111643 21.2738263,72.0831327 21.3931362,72.2541796 C21.1989798,72.3395176 21.0055645,72.4916417 20.8095554,72.4953521 C20.432729,72.5012886 20.0503447,72.4448914 19.6772235,72.37625 C18.4937588,72.1584527 17.4047786,72.3944307 16.4206577,73.0674874 C14.8021938,74.1739125 13.4305011,75.5400618 12.2655628,77.1173298 C11.8594647,77.6675741 11.4118675,78.1896198 11.0387464,78.761013 C9.15572585,81.6420965 7.71140983,84.7209414 6.90921788,88.0847409 L6.69574947,88.9454158 L6.69574947,88.9454158 L6.2499569,90.6631994 C6.03014149,91.5225618 5.82431349,92.3842896 5.67462039,93.2558499 C5.22331795,95.886114 5.05472796,98.5508843 5.38412687,101.215655 C5.5667969,102.693114 5.6868478,104.206935 6.11369543,105.619464 C6.78620277,107.846043 8.16604702,109.619588 10.236925,110.7787 C10.810872,111.100758 11.3855601,111.425784 11.9802567,111.705544 C13.3419451,112.347063 14.6791787,112.120732 16.026046,111.590524 C17.8620095,110.867748 19.0539963,109.434813 20.1263028,107.894277 C22.4424699,104.566097 24.5755965,101.127719 26.0662285,97.3335199 C26.1859088,97.0292715 26.194431,96.5706728 26.0495547,96.2905417 C25.1743689,94.5956557 25.3537042,92.7913146 25.6701346,91.06823 C25.9020848,89.8063414 26.606087,88.6242252 27.1485392,87.4291228 C27.3986452,86.8766523 27.6461575,86.1561032 28.1078348,85.9063969 C28.8207296,85.520521 28.9633827,85.0429995 29.0222965,84.3447124 C29.0737998,83.7376998 30.2750498,83.5933674 30.9234729,84.0675496 C31.7656818,84.683838 32.132504,85.5650451 32.1688157,86.5456895 C32.2151316,87.8023836 33.0076898,88.4016045 33.9929224,88.826068 C34.8773714,89.2078626 35.7095761,89.0479467 36.450631,88.3760031 C38.1328256,86.8503089 39.5019246,85.0878946 40.6161006,83.1099093 C41.1229822,82.2101505 41.7428746,81.3756937 42.2749521,80.4896631 C42.921893,79.4121787 43.5332633,78.3131743 44.1531558,77.2197354 C44.4136366,76.7600235 44.6126098,76.2583848 44.9157013,75.8305819 C45.7475354,74.6581126 45.4196186,73.4726572 45.1772936,72.1992665 C44.7107996,69.7441307 44.3095183,67.2637645 44.1064693,64.7752356 C43.9593699,62.9731206 44.014208,61.1168346 44.2769119,59.328819 C44.5281295,57.6205758 44.777124,55.8451753 45.7679144,54.3369198 C46.1699367,53.7247127 46.6012307,53.1214105 47.0925501,52.5811842 C47.6905814,51.9240819 48.9118399,52.1767565 49.8803987,52.7763483 Z M31.158279,86.4022849 C30.894276,87.2521567 30.6277088,88.110346 30.3592821,88.974605 C30.3514149,88.9567324 30.3418586,88.9402232 30.3317406,88.9247632 C29.6903575,91.0348369 28.5,93.5 28.3634987,95.4022849 L28.5031155,95.2528391 C30.3141697,93.216192 31.9513347,87.5880006 31.158279,86.4022849 Z M29.5,86 C27,90 26.1402602,92.7117155 26.5,95 L27.3597398,93.7882845 C28.4105557,92.4829848 30.1747305,86.9965989 29.5,86 Z M47.3289466,54.2801515 L47.1878076,54.6843057 C46.8464638,55.648394 46.4828971,56.6114652 46.2770932,57.6051037 C45.7567868,60.1206502 45.7295791,62.6314352 45.9755925,65.1352786 C46.0510651,65.9038301 46.1522272,66.6710935 46.2727462,67.4376433 C46.3601179,67.9930032 46.4575718,68.5478775 46.5627699,69.1023522 C46.6635534,69.6340447 46.8388129,70.152009 46.9792428,70.6762808 C47.0533483,70.6721995 47.1274538,70.6681181 47.2019298,70.6640367 C47.3227217,70.4443842 47.467598,70.2343787 47.5606004,70.0035952 C48.3446365,68.0512112 49.0338175,66.0795334 49.3898944,63.9854143 C49.6535439,62.4348474 49.8817398,60.8857121 50.018026,59.3291508 C50.1505727,57.8165517 50.1962163,56.2970491 50.1030857,54.7624964 C50.0728768,54.2625819 49.8859578,53.9796995 49.6206747,53.8010419 L49.5294154,53.7450106 C49.31034,53.6230386 49.0491399,53.5565708 48.7825999,53.4925564 C48.6940191,53.4712837 48.6073816,53.4575637 48.5231887,53.4513769 L48.3987216,53.447633 C47.9089851,53.455683 47.5162853,53.7345823 47.3289466,54.2801515 Z M101.823087,34.2872871 C102.92133,34.4427506 103.935093,34.9640542 104.639466,35.7632627 C105.206373,36.4062656 105.575789,37.3319969 105.369775,38.2751668 C105.221935,38.9523049 105.185994,39.4836264 106.050064,39.7567079 C105.85072,39.8182996 105.643595,39.9492748 105.452774,39.9284969 C104.946576,39.8736979 104.635947,40.1357054 104.333008,40.4270816 L104.150665,40.603132 C104.119927,40.6322946 104.088891,40.661176 104.057367,40.6894888 C103.104371,41.5447235 102.163601,42.419252 101.152432,43.2013929 C100.490299,43.7134206 99.7021875,43.6547972 98.9048124,43.3906205 C98.6472958,43.3056536 98.1878418,43.3976702 98.0066538,43.5868978 C96.5556683,45.1029451 95.2247337,46.7414338 93.7089059,48.1858714 C92.0659871,49.7512663 90.3111691,51.2153688 88.1773015,52.1147566 C87.3606589,52.4587056 86.0756697,52.2141939 85.4239119,51.5849192 C85.2475409,51.4149854 85.0582013,51.2584088 84.7795647,51.0109287 C84.1963545,51.9596641 83.6468622,52.816754 83.1344228,53.6953639 C82.1540071,55.3757795 80.8553084,56.7998102 79.4287777,58.0817347 C78.5821224,58.8430976 77.5164855,59.4211695 76.3211639,58.7254797 C75.9765733,58.5243789 75.5915953,58.1589099 75.500075,57.7986353 C75.1962425,56.6020488 75.1758635,55.3520333 75.7260968,54.2285406 C75.9595291,53.7513901 76.5168024,53.3621748 77.0151618,53.106161 C77.4957359,52.859423 77.5820688,53.2738686 77.5542793,53.6916536 C77.4898075,54.673411 77.3834661,55.6577658 77.4131083,56.6380391 C77.4420094,57.612747 77.6450585,57.6684022 78.5217265,57.1504379 C79.9452929,56.3096735 80.8786516,54.9902746 81.7564312,53.6656811 C82.5211998,52.5121346 83.1151553,51.2398571 83.718374,49.9879864 C83.9169768,49.576138 83.9177178,49.0659655 83.9918233,48.5984619 C84.0196129,48.4248177 83.9825601,48.2415266 84.0029391,48.0656562 L84.0142,47.9624015 L84.0142,47.9624015 L84.0380245,47.7547644 C84.0884818,47.3764008 84.1952429,47.0242152 84.6721117,46.9210146 C85.0604245,46.8367897 85.7773951,47.4976023 85.8963344,47.9836576 C85.9685873,48.2793721 86.0178674,48.5847336 86.1282846,48.8659778 C86.875268,50.7656749 87.6707904,51.0539687 89.3170439,50.0536595 C90.9192046,49.0800648 92.3713017,47.8037058 93.7266912,46.4920986 C94.5227959,45.7218308 95.2559865,44.8863821 95.9763178,44.0378141 L97.0534271,42.7616304 C97.2334235,42.5494624 97.4141804,42.3381014 97.5964799,42.1283609 C98.0044307,41.6590022 98.3731055,41.3825814 99.0871119,41.6627125 C100.302442,42.1387499 101.666724,41.6311746 102.462617,40.5696446 C102.674929,40.2861742 102.926517,40.0238528 103.090291,39.715152 C103.209971,39.4906761 103.214417,39.2053505 103.270737,38.9471104 C103.05472,38.9085228 102.83722,38.8320897 102.622685,38.8402525 C102.128031,38.8584332 102.070228,38.7845973 102.185833,37.9861309 C102.470398,38.1794399 102.66826,38.3141254 102.867233,38.448811 L103.062653,38.3829972 C103.546188,38.2178169 103.968397,38.0247185 103.795775,37.2845045 C103.60273,36.4567263 102.764967,35.6285772 101.954624,35.6063151 C101.132794,35.583682 100.439908,35.8678945 99.831131,36.442627 C98.9485346,37.2755996 97.9818285,38.0217502 97.125169,38.8788401 C96.3537308,39.650963 95.6908572,40.531057 94.9627708,41.3484462 C94.311754,42.0786423 93.6410993,42.7921418 92.968592,43.502673 C92.8437242,43.6347613 92.6677237,43.717873 92.3816765,43.7141627 C92.8822591,42.8986287 93.312812,42.0289236 93.8986159,41.2801759 C95.0383584,39.822752 96.2029262,38.373491 97.4775406,37.0359113 C98.3908908,36.077529 99.4694962,35.2657053 100.540691,34.4779989 C100.852305,34.2486996 101.405873,34.2279216 101.823087,34.2872871 Z M66.5115606,48.4461151 C66.7134981,48.4780241 66.8065005,48.4654089 66.860227,48.5054806 C67.6664947,49.1054435 68.4842488,49.6924202 69.2471648,50.343957 C69.3383146,50.4218742 69.1574972,51.0760082 69.0455979,51.0934468 C68.4575708,51.1839792 68.4720214,51.5635476 68.4868425,51.985785 C68.4946236,52.2136002 68.5457564,52.4614513 68.4749856,52.6644072 C68.3864296,52.919308 68.1926437,53.1371053 68.0440622,53.370486 C67.7339307,53.1690142 67.1729521,52.9846101 67.1570194,52.7616183 C67.0840255,51.7564856 66.4067013,51.2615255 65.7267835,50.7316881 C64.997956,50.1640052 65.0439014,49.6530906 65.835348,49.2471787 C65.9809653,49.1726008 66.0743382,48.992278 66.186608,48.8561083 C66.3103642,48.7065814 66.4281919,48.5514889 66.5115606,48.4461151 Z"/>
        <path d="M28.1234451,7.77628202 C28.7733502,8.13841177 29.1379493,8.64635811 29.0564332,9.47116798 C28.8578305,11.4855147 28.7722387,13.5135897 28.4980483,15.5164344 C28.3553953,16.5571864 27.940034,17.5671425 27.5935908,18.5722752 C26.415684,21.9891326 26.1644664,25.5766659 25.7146461,29.1167069 C25.3152175,32.2608539 25.1888676,35.438765 24.8972625,38.5977535 C24.741641,40.2841056 24.4563348,41.9582136 24.2966375,43.6445658 C24.1962246,44.7034985 24.1832561,45.7746753 24.1940014,46.8399156 C24.2355005,51.0544974 24.1765866,55.2753867 24.4029789,59.4803216 C24.5508193,62.2300589 25.0150902,64.978683 25.5568014,67.6838962 C25.8235812,69.0177655 26.4720042,70.3204679 27.6102645,71.2428598 C28.2846245,71.7890227 28.4991599,71.7697289 28.8374515,71.0098501 C29.3069098,69.9549988 29.7111552,68.8708358 30.1587524,67.8059665 C30.3173382,67.4282533 30.5200167,67.0698339 30.7026867,66.7025097 C30.780868,66.7347897 30.8590493,66.7670697 30.9372306,66.7993497 C30.9372306,67.2653691 31.0028139,67.7425196 30.9253737,68.1951818 C30.660076,69.7498167 30.2313758,71.2617826 29.262076,72.5370284 C29.0608795,72.8015761 28.6047602,72.993401 28.2586876,73.0056451 C26.5045283,73.0653405 25.7331725,71.8594506 25.0819468,70.5965894 L24.8416834,70.1227064 L24.8416834,70.1227064 C23.9264806,68.3068632 23.7078694,66.2999372 23.5574352,64.2963504 C23.3577209,61.640856 23.122436,58.9864746 22.9894166,56.3276408 C22.9082711,54.7073328 22.9912693,53.078862 22.9975682,51.4544726 C22.9997914,50.8474601 22.9708903,50.2393344 22.9964567,49.6334349 C23.0290631,48.8538913 23.1305876,48.0773159 23.149855,47.2977723 C23.1791267,46.1390313 23.1409624,44.9784351 23.169493,43.8196941 C23.2083984,42.2246165 23.2684238,40.6295388 23.345864,39.0359453 C23.4559107,36.7629875 23.5715153,34.4896586 23.7234315,32.219298 C23.7797517,31.3789047 23.9709439,30.5481583 24.0557947,29.708136 C24.1521318,28.7542061 24.2010414,27.7950817 24.2610669,26.8378125 C24.2681069,26.725389 24.2136394,26.6088841 24.1669529,26.4029599 C23.3358598,27.5383258 22.603327,28.6228598 21.7852024,29.6391235 C20.3746044,31.3907778 18.9843853,33.1687755 17.4544775,34.8132007 C14.3001772,38.2029727 10.3640641,40.5000477 6.294561,42.6015876 C4.85580289,43.3443988 3.49411448,44.236737 2.10093124,45.0678544 C1.6010897,45.3657952 1.54180531,45.7245856 1.80339769,46.2803954 C2.69266359,48.1700745 4.17292078,49.2531245 5.85437438,48.9882058 C6.58134925,48.8735561 7.33463157,48.582294 7.95044821,48.1789794 C8.99681775,47.4936785 9.92906483,46.6373307 10.9376406,45.8908091 C11.544194,45.4414863 12.1740907,45.0021813 12.8506738,44.6790102 C13.2564014,44.4857012 13.7725461,44.5242888 14.2390402,44.4589867 C14.2827624,44.5780888 14.3264847,44.6975619 14.3702069,44.816664 C13.7781041,45.1880696 13.1822959,45.5539097 12.5950099,45.932365 C11.8083801,46.4391982 11.0347188,46.9664384 10.2436426,47.466593 C9.05350845,48.2186801 7.92710498,49.1377327 6.6413747,49.6579232 C4.27111056,50.6170476 1.90529274,49.4712928 0.71701119,47.4187295 C-0.442369223,45.4151428 -0.262292879,44.8096144 1.74707752,43.6111727 C3.9828402,42.2776744 6.31642212,41.1081734 8.54847952,39.7687386 C10.3436851,38.6919962 12.0647851,37.487618 13.7951483,36.3058729 C16.3973626,34.5286172 18.3993225,32.1321049 20.3156905,29.6858739 C22.0204873,27.5104982 23.3532746,25.1002575 24.5460025,22.5853852 C25.5023338,20.5691833 25.666848,18.4490917 26.0429334,16.3401311 C26.4523662,14.0437981 26.8769907,11.7508044 27.2782719,9.45335832 C27.3898007,8.81332367 27.3646048,8.1257966 28.1234451,7.77628202 Z M77.3149667,3.78328209 C77.4968957,6.10336131 77.3846259,8.39821018 76.8821906,10.6563266 C76.3171363,13.1964294 75.7954336,15.7658438 74.9487784,18.2161562 C74.2592268,20.2126932 73.1339349,22.0608165 72.1668582,23.9568032 C71.9186048,24.4436005 71.9382428,24.7834682 72.3358187,25.1667469 C74.0713693,26.840855 76.4731283,26.9172881 78.385791,25.2954959 C79.9327432,23.9838887 81.2436693,22.4518869 82.4460309,20.8182217 C82.784693,20.3577678 83.1911616,19.8895221 83.6721063,19.6034545 C84.6969852,18.9945867 84.8844721,17.8992926 85.3857958,16.9832083 C86.5607383,14.8352891 87.8887087,12.8183451 89.8476874,11.2737282 C91.5165431,9.95803955 93.9082978,9.93689058 95.4537678,11.3089765 C96.3919433,12.1419491 96.5045837,13.4869494 95.6423663,14.4412504 C94.146547,16.0964356 92.5358641,17.6084015 90.5935592,18.7641742 C89.2300181,19.5756269 87.8827803,20.1407125 86.2506068,20.2702036 C84.5624838,20.4041471 83.3493769,21.5484177 82.271142,22.8885946 C81.0380266,24.4205964 79.646696,25.8427719 78.2042326,27.1829488 C76.2230223,29.0236514 73.1135559,28.9824665 70.9796882,27.345462 C70.5454301,27.012644 70.3223725,27.1002081 70.0007547,27.5131696 C68.0325128,30.0425123 66.0939132,32.5989406 64.0274816,35.0466557 C62.2037454,37.2071901 60.2781142,39.2890651 58.297645,41.3071222 C57.0778686,42.550088 55.6309589,43.5118096 53.8624313,43.9166083 C52.9905802,44.1162249 52.2128431,44.0353394 51.4314007,43.6609655 C51.0945912,43.4995655 50.7522238,43.3500385 50.3309341,43.1578426 C50.2205169,43.4865793 50.1082471,43.7355435 50.0541501,43.9967518 L49.4487082,47.0503664 L49.4487082,47.0503664 C49.2916046,47.8091321 48.5127559,48.2198674 47.8739665,47.7998562 C47.6686943,47.6647997 47.6194142,47.1394147 47.6575785,46.8117912 C47.8094948,45.511315 48.0025396,44.2145491 48.2204097,42.9229777 C48.6342889,40.468955 46.8513108,39.2092926 44.9553218,38.8467919 C43.4839572,38.5659187 41.929224,38.6085877 40.4200657,38.6827946 C39.9933416,38.7038199 39.573136,38.8461185 39.1534768,39.0097427 L38.6497658,39.2099314 C38.4816948,39.2758086 38.3133289,39.3387013 38.144286,39.3922127 C37.3235677,39.6523079 36.9871288,40.210715 37.0378911,41.0592711 C37.2124095,43.9730056 37.1864726,46.9134546 37.5881243,49.7945381 C38.0705511,53.2525804 38.7960438,56.6894737 39.6556675,60.0747932 C40.012115,61.478046 40.9936422,62.7210118 41.6806001,64.0418949 C41.847708,64.3635819 41.97554,64.7056758 42.1163404,65.0273628 C41.0483997,65.5674278 40.41537,65.0744316 39.8669589,64.4812557 L39.6961806,64.291695 C39.6399198,64.2281234 39.584188,64.1645299 39.5285766,64.1020025 C38.8108649,63.2950023 38.2521095,62.3414435 37.5073493,61.564126 C36.902278,60.9329962 36.1082377,60.4877547 35.4268377,59.9245242 C33.7954053,58.5765556 31.8901531,57.8044326 29.8963449,57.1937097 C29.1741868,56.9722021 28.4583278,56.7087675 27.7732225,56.3911619 C25.59378,55.3804637 25.0420646,54.1475158 25.843145,51.7539718 C26.5275092,49.7084581 27.644279,47.8592218 29.0496896,46.2010682 C29.6203019,45.5272695 30.1030992,44.7729562 30.7144695,44.1407132 C32.1002422,42.7081487 33.5378887,41.3253028 34.9618257,39.9294708 C35.3675533,39.5317217 35.6035793,39.1792388 35.5257685,38.4987614 C35.4309135,37.667644 35.6980638,36.7953417 35.8062578,35.940478 C35.8377526,35.6907717 35.9348308,35.4199165 35.8733233,35.1935854 C35.5580044,34.0259396 35.9578035,32.957731 36.2256949,31.8546452 C36.4009544,31.1314988 36.4361545,30.3708779 36.497662,29.6239853 C36.5828833,28.5873147 36.5658391,27.5376579 36.7140501,26.5113763 C37.0286279,24.3337743 37.3898921,22.1617379 37.7926555,19.9986063 C38.1246481,18.214672 38.5311167,16.4444661 38.9335095,14.6750022 C39.0324404,14.2386655 39.2669842,13.8346088 39.3996331,13.4034667 L39.5936533,12.7875795 L39.5936533,12.7875795 L39.9913125,11.5571683 C40.2531922,10.7360461 40.4986175,9.9112892 40.667578,9.07126691 C40.9406568,7.71513552 41.4890374,6.52745384 42.2982694,5.45701908 C42.5050237,5.18356659 43.0259853,4.96873757 43.365759,5.01289069 C44.1594288,5.11678037 45.6889661,6.86917668 45.3936557,7.99749284 C45.3306661,8.23792325 45.1431792,8.44496054 45.013124,8.66758129 C44.8689889,8.46054399 44.6978052,8.26649291 44.5892406,8.04201699 C44.5032783,7.86466246 44.5099478,7.64463895 44.4476991,7.45244304 C44.290966,6.96564567 44.0097357,6.47996141 43.4698772,6.56455729 C43.1942048,6.60796834 42.8929659,7.05840432 42.7643929,7.38788303 C41.3497191,11.0121488 40.2077535,14.7291732 39.4963407,18.5515714 C38.9120189,21.690895 38.5133314,24.8676931 38.116126,28.0381835 C37.7504154,30.9578546 37.4877114,33.8901409 37.2038874,36.8190879 C37.165723,37.2120135 37.2705823,37.6182964 37.3087466,38.0138192 C38.1268713,37.7351723 38.7860396,37.5092122 39.4463195,37.2862204 C42.1837764,36.3604891 44.9019658,36.4024161 47.4600874,37.7730178 C48.5964951,38.3818855 49.546157,39.3436072 50.5728885,40.1550598 L50.8537928,40.3879448 L50.8537928,40.3879448 L51.4037741,40.869245 C51.5885043,41.0273472 51.7773251,41.1792636 51.9782992,41.3134297 C53.561563,42.3693942 55.0933235,41.7924354 56.4509361,40.9049207 C57.6255082,40.1376212 58.6618735,39.138425 59.6852703,38.1637172 C61.0758598,36.8391238 62.4568157,35.4948655 63.7277248,34.0574775 C64.5283112,33.1521531 65.2720833,32.1953786 66.0021871,31.2280503 L67.0924847,29.7742543 L67.0924847,29.7742543 C67.8479902,28.7691217 68.5193859,27.7005421 69.2667398,26.6891018 C69.6520884,26.1677982 69.3475148,25.8527899 69.0429412,25.4991939 C67.8646639,24.1319315 67.0435751,22.5895408 66.8612755,20.7707292 C66.8042143,20.2015622 66.9046273,19.6164407 66.9335284,19.0387398 C66.9398274,18.9151853 66.982438,18.783097 66.9524253,18.6699315 C66.2391599,16.0021928 66.7523405,13.3225811 66.8979578,10.6522452 C67.0191202,8.43457157 67.5452692,6.29147584 68.4623247,4.26080359 C69.1852238,2.66016042 70.3408989,1.39530354 71.6655346,0.277005322 C71.8104108,0.154563911 72.0323567,0.0989087242 72.2279952,0.0647735429 C74.2873868,-0.294387929 77.082646,0.825765464 77.3149667,3.78328209 Z M35.249355,40.9828379 C34.2155834,41.9445596 33.1621739,42.6851446 32.4244537,43.6643048 C31.3244492,45.12441 30.036225,46.4594677 29.115036,48.0505352 C28.9334647,48.3641171 28.7660885,48.6877224 28.61721,49.0241961 C28.1281137,50.1295082 27.5982595,51.222576 27.2006835,52.3609101 C27.0852024,52.6919966 27.0508669,53.0321941 27.0909388,53.3565196 L27.1172182,53.5172153 C27.2358113,54.1007666 27.6007214,54.6169982 28.170428,54.9122181 C28.817638,55.2475326 29.4816333,55.5511269 30.1523736,55.8411149 C30.409355,55.9521214 30.6673588,56.0612509 30.9257881,56.1694014 L32.3158957,56.7472568 C32.3192284,56.7486499 32.3225609,56.7500431 32.3258934,56.7514365 C32.9195093,56.9997205 33.5077216,57.2545748 34.0759495,57.5440473 L34.4142973,57.7220351 C35.0858783,58.087365 35.7244824,58.5106227 36.3049136,59.0402746 L36.2146981,58.9592217 C36.2449472,58.9859853 36.2750449,59.0130255 36.3049878,59.0403488 C36.5417548,59.256662 36.8756,59.3661172 37.1646115,59.5245489 L37.2801419,59.4317161 L37.2801419,59.4317161 L37.3957465,59.3389574 C37.3175652,58.8747932 37.2693966,58.4028372 37.1556447,57.9475778 C37.0683049,57.5985956 36.9673514,57.2521068 36.8651588,56.9059929 C36.6570445,56.2013309 36.4434502,55.4972671 36.3298131,54.7771615 C36.0144942,52.7813665 35.7310407,50.7725853 35.5995035,48.7586096 C35.4461051,46.4081055 35.4709304,44.0464704 35.410905,41.6892878 C35.4068292,41.5297429 35.3405048,41.3716822 35.249355,40.9828379 Z M73.1617244,1.2918591 C72.8568498,1.26217634 72.6002451,1.29948995 72.3756951,1.38492438 L72.244682,1.44198795 C71.8199287,1.64973471 71.5104225,2.03482802 71.1864426,2.4464445 C70.1756437,3.73133725 69.7736214,5.2663073 69.4883152,6.80164839 C68.8261827,10.3617252 68.8309995,13.9704075 68.9566083,17.5783477 C69.0181159,19.3474406 69.2774851,21.0660728 70.1975048,22.6195946 C70.4190802,22.9939684 70.6814136,23.3438541 70.9730187,23.7757383 L71.0551472,23.6724502 C71.1812552,23.5177064 71.2547431,23.4441694 71.294266,23.3554303 C72.1694519,21.4019333 73.1906256,19.4977838 73.8753603,17.4789847 C74.3866787,15.9718205 74.8303169,14.4445238 75.1855809,12.8980506 C75.669915,10.7897222 75.9899053,8.64649497 76.0933377,6.46994348 C76.1478052,5.32789904 75.9877373,4.13131253 75.6801996,3.02859776 C75.4415799,2.17287485 74.8317964,1.69809037 74.0524454,1.46130096 L73.8829196,1.41389664 C73.6536207,1.35572227 73.4116549,1.3161521 73.1617244,1.2918591 Z M91.9956351,11.6974497 C90.888499,12.0313808 89.9395782,12.645443 89.2088981,13.5626405 C88.7887199,14.0906227 88.3274132,14.5948587 87.9713364,15.1640257 C87.3284712,16.1929046 86.7504484,17.2625973 86.1101769,18.375701 C86.3833211,18.4102727 86.6412441,18.4296641 86.8970892,18.4295445 L87.0887888,18.4257288 C87.8556715,18.3952914 88.6334253,18.1795111 89.7769167,17.6614595 C91.677352,16.7999172 93.2324557,15.4664189 94.4700174,13.7841481 C94.9657832,13.1092362 94.8813029,12.678094 94.2143535,12.1538222 C93.8107636,11.8362166 93.3647976,11.6457727 92.8961433,11.6022051 L92.7193728,11.5927905 C92.4823634,11.5895203 92.2402972,11.6235852 91.9956351,11.6974497 Z"/>
      </g>
    </g>
  </g>
</svg>
